<svg viewBox="0 0 245 250" xmlns="http://www.w3.org/2000/svg" width="245" height="250"><circle cx="29.37011" cy="223.661" r="25" fill="rgb(255 255 255)"/><circle cx="22.382727" cy="183.46173" r="24.327854" fill="rgb(255 255 255)"/><circle cx="214.39955" cy="191.42487" r="23.001951" fill="rgb(255 255 255)"/><circle cx="6.806444" cy="76.74841" r="24.440485" fill="rgb(255 255 255)"/><circle cx="235.14833" cy="31.179287" r="25" fill="rgb(255 255 255)"/><circle cx="66.912964" cy="231.5776" r="25" fill="rgb(255 255 255)"/><circle cx="48.31655" cy="114.57841" r="13.732992" fill="rgb(115 167 202)"/><circle cx="227.7464" cy="157.85988" r="25" fill="rgb(255 255 255)"/><circle cx="237.27164" cy="237.96812" r="24.48175" fill="rgb(255 255 255)"/><circle cx="160.31012" cy="235.48497" r="14.679026" fill="rgb(255 255 254)"/><circle cx="198.37755" cy="236.24707" r="25" fill="rgb(255 255 255)"/><circle cx="141.20763" cy="21.971964" r="22.824139" fill="rgb(252 253 252)"/><circle cx="74.64075" cy="31.056568" r="24.039547" fill="rgb(255 255 255)"/><circle cx="197.8988" cy="68.76808" r="25" fill="rgb(255 255 255)"/><circle cx="60.105385" cy="140.0129" r="25" fill="rgb(41 31 26)"/><circle cx="12.813026" cy="31.530865" r="16.149105" fill="rgb(255 255 255)"/><circle cx="184.19963" cy="125.03278" r="19.662045" fill="rgb(47 62 91)"/><circle cx="51.414806" cy="5.4180827" r="24.988596" fill="rgb(150 150 150)"/><circle cx="49.11637" cy="85.7465" r="20.360281" fill="rgb(224 224 224)"/><circle cx="231.95209" cy="63.55363" r="18.91859" fill="rgb(255 255 255)"/><circle cx="123.29954" cy="209.66283" r="19.168541" fill="rgb(153 176 214)"/><circle cx="233.98624" cy="23.910122" r="23.126318" fill="rgb(255 255 255)"/><circle cx="13.966818" cy="0" r="25" fill="rgb(255 255 255)"/><circle cx="91.47788" cy="195.76257" r="22.92702" fill="rgb(135 163 204)"/><circle cx="103.215645" cy="242.29062" r="20.326918" fill="rgb(255 255 255)"/><circle cx="131.32045" cy="158.96983" r="24.784727" fill="rgb(156 160 165)"/><circle cx="154.60258" cy="81.71412" r="20.048336" fill="rgb(185 186 188)"/><circle cx="31.050915" cy="61.890305" r="24.800182" fill="rgb(224 224 224)"/><circle cx="89.45027" cy="119.26337" r="21.116117" fill="rgb(223 224 222)"/><circle cx="82.41858" cy="93.55429" r="24.58993" fill="rgb(116 170 202)"/><circle cx="144.5834" cy="250" r="22.382591" fill="rgb(158 181 222)"/><circle cx="4.051162" cy="236.36148" r="23.111082" fill="rgb(255 255 255)"/><circle cx="198.86382" cy="155.70195" r="20.43959" fill="rgb(75 126 189)"/><circle cx="136.03134" cy="247.67566" r="16.39537" fill="rgb(255 255 255)"/><circle cx="193.52951" cy="68.504616" r="19.175549" fill="rgb(156 156 156)"/><circle cx="115.63524" cy="13.579072" r="19.482086" fill="rgb(213 203 207)"/><circle cx="5.847469" cy="117.65851" r="24.72729" fill="rgb(255 255 255)"/><circle cx="156.00024" cy="109.487625" r="20.255774" fill="rgb(77 78 87)"/><circle cx="184.24986" cy="20.53665" r="23.766577" fill="rgb(255 255 255)"/><circle cx="42.12402" cy="194.15314" r="22.067396" fill="rgb(255 255 255)"/><circle cx="148.28636" cy="124.50584" r="24.319235" fill="rgb(217 217 217)"/><circle cx="109.68074" cy="71.394485" r="22.858618" fill="rgb(201 203 204)"/><circle cx="42.68629" cy="100.452896" r="16.793222" fill="rgb(26 118 177)"/><circle cx="96.42534" cy="40.337482" r="25" fill="rgb(255 255 255)"/><circle cx="234.00821" cy="212.71497" r="24.496416" fill="rgb(255 255 255)"/><circle cx="177.40056" cy="208.93057" r="22.6028" fill="rgb(255 255 255)"/><circle cx="33.49247" cy="139.626" r="23.067844" fill="rgb(130 173 194)"/><circle cx="168.56561" cy="0" r="25" fill="rgb(255 255 255)"/><circle cx="193.47166" cy="102.604706" r="24.830303" fill="rgb(4 99 170)"/><circle cx="27.401169" cy="26.777872" r="24.12645" fill="rgb(255 255 255)"/><circle cx="230.44905" cy="0" r="18.163443" fill="rgb(255 255 255)"/><circle cx="121.575" cy="52.740093" r="18.400524" fill="rgb(200 55 57)"/><circle cx="-1.3905708" cy="211.84572" r="20.269293" fill="rgb(255 255 255)"/><circle cx="83.38946" cy="58.59168" r="14.816571" fill="rgb(136 44 48)"/><circle cx="-2.6633012" cy="159.73785" r="18.496796" fill="rgb(255 255 255)"/><circle cx="123.86289" cy="172.41953" r="18.102509" fill="rgb(145 105 40)"/><circle cx="143.36917" cy="202.59593" r="18.19387" fill="rgb(135 162 208)"/><circle cx="66.02536" cy="52.663208" r="16.259308" fill="rgb(186 49 50)"/><circle cx="107.331955" cy="220.41461" r="15.364274" fill="rgb(106 116 142)"/><circle cx="169.33656" cy="-6.8663387" r="17.116156" fill="rgb(255 255 255)"/><circle cx="109.07165" cy="171.31415" r="18.144691" fill="rgb(144 107 51)"/><circle cx="203.6822" cy="93.42534" r="16.25374" fill="rgb(107 105 104)"/><circle cx="48.087147" cy="92.61428" r="7.4749784" fill="rgb(13 32 54)"/><circle cx="242.1875" cy="207.58865" r="25" fill="rgb(255 255 255)"/><circle cx="174.09796" cy="54.094757" r="14.849666" fill="rgb(118 40 37)"/><circle cx="50.446964" cy="150.59831" r="12.191122" fill="rgb(128 161 200)"/><circle cx="7.5356326" cy="143.93729" r="22.762068" fill="rgb(255 255 255)"/><circle cx="206.34683" cy="101.45403" r="12.894658" fill="rgb(11 58 103)"/><circle cx="106.602394" cy="33.74036" r="10.131125" fill="rgb(119 39 32)"/><circle cx="155.27151" cy="55.198284" r="16.69009" fill="rgb(231 233 233)"/><circle cx="160.71185" cy="155.08792" r="14.3633" fill="rgb(254 255 251)"/><circle cx="57.419975" cy="178.57079" r="15.739214" fill="rgb(62 74 93)"/><circle cx="229.4054" cy="40.970562" r="17.17196" fill="rgb(255 255 255)"/><circle cx="37.29813" cy="247.87613" r="14.683294" fill="rgb(255 255 255)"/><circle cx="157.9639" cy="250" r="22.535194" fill="rgb(255 255 255)"/><circle cx="172.45508" cy="148.85414" r="10.761462" fill="rgb(252 188 46)"/><circle cx="95.82894" cy="144.81198" r="20.77059" fill="rgb(192 192 192)"/><circle cx="129.60985" cy="82.58064" r="7.219265" fill="rgb(255 255 255)"/><circle cx="181.17918" cy="184.2252" r="10.941078" fill="rgb(111 135 178)"/><circle cx="229.44482" cy="118.88236" r="20.231436" fill="rgb(255 255 255)"/><circle cx="186.7062" cy="79.585236" r="19.447454" fill="rgb(167 165 164)"/><circle cx="84.51708" cy="177.25447" r="10.7654505" fill="rgb(4 1 18)"/><circle cx="35.083847" cy="18.466003" r="10.555961" fill="rgb(150 150 150)"/><circle cx="155.28036" cy="18.710001" r="14.816707" fill="rgb(149 150 149)"/><circle cx="85.42777" cy="-5.209055" r="23.527822" fill="rgb(150 150 150)"/><circle cx="198.07605" cy="6.98435" r="10.399206" fill="rgb(155 155 155)"/><circle cx="24.013512" cy="120.18871" r="6.332932" fill="rgb(255 255 255)"/><circle cx="73.71528" cy="-11.869464" r="19.573494" fill="rgb(249 249 249)"/><circle cx="74.704765" cy="101.9481" r="15.489304" fill="rgb(18 104 169)"/><circle cx="146.39795" cy="99.89052" r="10.357281" fill="rgb(16 94 162)"/><circle cx="40.695908" cy="39.66068" r="19.1578" fill="rgb(185 184 181)"/><circle cx="231.90024" cy="163.19936" r="24.662374" fill="rgb(255 255 255)"/><circle cx="162.30154" cy="43.280243" r="10.312663" fill="rgb(202 55 58)"/><circle cx="134.28958" cy="34.3858" r="7.9175096" fill="rgb(252 253 252)"/><circle cx="82.38794" cy="162.75858" r="9.101872" fill="rgb(234 238 237)"/><circle cx="99.30643" cy="98.77323" r="14.571472" fill="rgb(7 94 160)"/><circle cx="176.52258" cy="11.3462715" r="9.753989" fill="rgb(150 150 150)"/><circle cx="47.09547" cy="126.27837" r="18.576092" fill="rgb(59 127 177)"/><circle cx="9.477988" cy="96.25306" r="23.4486" fill="rgb(255 255 255)"/><circle cx="120.33556" cy="99.80521" r="15.275049" fill="rgb(10 94 155)"/><circle cx="110.22008" cy="213.02513" r="11.417462" fill="rgb(134 162 207)"/><circle cx="106.23363" cy="109.638336" r="7.2217503" fill="rgb(163 163 164)"/><circle cx="117.13125" cy="36.80584" r="11.032949" fill="rgb(114 43 44)"/><circle cx="177.10184" cy="128.77834" r="7.29513" fill="rgb(192 141 36)"/><circle cx="172.6052" cy="189.96924" r="14.963522" fill="rgb(71 69 70)"/><circle cx="226.87267" cy="131.47365" r="14.819109" fill="rgb(255 255 255)"/><circle cx="63.4626" cy="196.76082" r="8.434115" fill="rgb(134 131 130)"/><circle cx="164.42955" cy="201.1854" r="15.108933" fill="rgb(111 134 178)"/><circle cx="118.39328" cy="68.28719" r="8.669127" fill="rgb(134 69 70)"/><circle cx="174.35298" cy="105.79234" r="9.134104" fill="rgb(12 89 152)"/><circle cx="47.62691" cy="-14.236046" r="23.609228" fill="rgb(249 249 249)"/><circle cx="157.11714" cy="151.0582" r="12.027243" fill="rgb(255 254 254)"/><circle cx="57.77696" cy="32.596592" r="7.55264" fill="rgb(233 60 68)"/><circle cx="196.68468" cy="81.03475" r="6.474523" fill="rgb(253 255 253)"/><circle cx="97.57228" cy="72.39485" r="8.300222" fill="rgb(252 255 255)"/><circle cx="76.2343" cy="81.96995" r="7.488878" fill="rgb(255 255 255)"/><circle cx="64.913895" cy="136.12813" r="8.213274" fill="rgb(175 133 40)"/><circle cx="167.26064" cy="71.405235" r="8.876358" fill="rgb(107 86 83)"/><circle cx="90.59122" cy="-15.727302" r="24.553947" fill="rgb(249 249 249)"/><circle cx="202.88234" cy="41.155422" r="5.0173526" fill="rgb(255 255 255)"/><circle cx="148.64848" cy="137.82996" r="19.978725" fill="rgb(232 232 232)"/><circle cx="197.71657" cy="130.94504" r="7.2566433" fill="rgb(95 142 189)"/><circle cx="60.27041" cy="155.18794" r="4.950089" fill="rgb(26 32 50)"/><circle cx="14.256608" cy="165.53642" r="19.269024" fill="rgb(255 255 255)"/><circle cx="227.51218" cy="39.10566" r="16.34491" fill="rgb(255 255 255)"/><circle cx="229.6807" cy="0" r="23.417898" fill="rgb(255 255 255)"/><circle cx="38.926884" cy="154.63438" r="4.7010818" fill="rgb(36 41 54)"/><circle cx="230.30182" cy="90.23632" r="17.324036" fill="rgb(255 255 255)"/><circle cx="99.51285" cy="127.17716" r="17.784487" fill="rgb(187 187 187)"/><circle cx="79.10444" cy="212.34964" r="8.65847" fill="rgb(145 144 145)"/><circle cx="44.27194" cy="50.829773" r="6.219242" fill="rgb(255 255 255)"/><circle cx="167.59753" cy="100.998276" r="16.714455" fill="rgb(95 129 155)"/><circle cx="189.50493" cy="57.17026" r="7.9148664" fill="rgb(142 42 41)"/><circle cx="54.175755" cy="46.44816" r="6.4112287" fill="rgb(169 45 47)"/><circle cx="101.18738" cy="81.54976" r="8.720796" fill="rgb(254 254 254)"/><circle cx="152.8242" cy="3.0201137" r="4.615063" fill="rgb(255 255 255)"/><circle cx="132.43811" cy="58.59621" r="12.2484255" fill="rgb(121 68 70)"/><circle cx="199.11734" cy="75.97704" r="4.4357157" fill="rgb(247 247 247)"/><circle cx="50.52156" cy="60.965443" r="5.6378226" fill="rgb(255 255 255)"/><circle cx="221.40527" cy="97.93533" r="11.058511" fill="rgb(255 255 255)"/><circle cx="118.03186" cy="141.61086" r="6.130571" fill="rgb(26 29 38)"/><circle cx="192.39017" cy="165.36098" r="13.627067" fill="rgb(103 124 157)"/><circle cx="53.74229" cy="164.91197" r="7.7257347" fill="rgb(94 132 183)"/><circle cx="176.7824" cy="157.82027" r="8.437226" fill="rgb(11 20 42)"/><circle cx="158.9549" cy="200.18468" r="10.734289" fill="rgb(135 162 205)"/><circle cx="34.341244" cy="198.71957" r="18.8286" fill="rgb(255 255 255)"/><circle cx="170.3422" cy="23.090805" r="8.562063" fill="rgb(255 255 255)"/><circle cx="190.37137" cy="-15.060216" r="23.918976" fill="rgb(249 249 249)"/><circle cx="71.849205" cy="174.0278" r="8.525102" fill="rgb(7 6 22)"/><circle cx="137.03177" cy="14.376801" r="8.319283" fill="rgb(150 150 150)"/><circle cx="138.81863" cy="172.00174" r="7.76325" fill="rgb(255 190 37)"/><circle cx="168.7324" cy="105.4388" r="3.3368437" fill="rgb(117 169 204)"/><circle cx="140.6014" cy="21.682146" r="8.761878" fill="rgb(253 254 250)"/><circle cx="128.7537" cy="-3.057952" r="10.470569" fill="rgb(249 249 249)"/><circle cx="224.8465" cy="143.33565" r="13.113888" fill="rgb(255 255 255)"/><circle cx="188.40244" cy="104.74449" r="15.791576" fill="rgb(17 102 172)"/><circle cx="6.8903956" cy="136.79683" r="24.296852" fill="rgb(255 255 255)"/><circle cx="170.64363" cy="81.44551" r="5.6700625" fill="rgb(220 222 220)"/><circle cx="107.9004" cy="174.26222" r="15.051573" fill="rgb(120 89 55)"/><circle cx="118.83406" cy="0" r="4.2381825" fill="rgb(255 255 255)"/><circle cx="165.2185" cy="60.42507" r="9.122519" fill="rgb(173 53 57)"/><circle cx="7.314993" cy="44.344814" r="24.092762" fill="rgb(255 255 255)"/><circle cx="227.41197" cy="80.50179" r="14.70372" fill="rgb(255 255 255)"/><circle cx="216.43732" cy="178.68196" r="15.868873" fill="rgb(255 255 255)"/><circle cx="34.01259" cy="61.81663" r="4.1754313" fill="rgb(42 40 41)"/><circle cx="64.95516" cy="18.496931" r="8.0359535" fill="rgb(255 255 255)"/><circle cx="34.696465" cy="71.54647" r="3.1441486" fill="rgb(43 41 42)"/><circle cx="33.938953" cy="34.09063" r="3.5484767" fill="rgb(43 41 42)"/><circle cx="208.37529" cy="53.79447" r="8.323049" fill="rgb(158 154 156)"/><circle cx="192.6755" cy="227.4674" r="22.40385" fill="rgb(255 255 255)"/><circle cx="127.709526" cy="255.33214" r="20.663877" fill="rgb(255 255 255)"/><circle cx="101.33317" cy="-10.449466" r="18.175718" fill="rgb(255 255 255)"/><circle cx="167.05096" cy="181.885" r="7.5724673" fill="rgb(5 5 12)"/><circle cx="148.14938" cy="19.697927" r="6.231264" fill="rgb(255 255 255)"/><circle cx="126.64826" cy="27.478334" r="12.585591" fill="rgb(254 255 255)"/><circle cx="156.298" cy="32.158226" r="6.600798" fill="rgb(181 49 52)"/><circle cx="75.52055" cy="72.42727" r="3.900019" fill="rgb(192 194 192)"/><circle cx="111.947845" cy="210.5774" r="16.441172" fill="rgb(153 175 213)"/><circle cx="124.50424" cy="114.91644" r="2.5489483" fill="rgb(148 150 152)"/><circle cx="45.853207" cy="80.922485" r="8.668305" fill="rgb(255 255 255)"/><circle cx="68.06003" cy="125.29945" r="5.9059153" fill="rgb(232 176 57)"/><circle cx="229.59816" cy="46.86136" r="19.522017" fill="rgb(255 255 255)"/><circle cx="35.121204" cy="95.02674" r="3.3000891" fill="rgb(10 67 118)"/><circle cx="130.86871" cy="113.13109" r="6.2504005" fill="rgb(222 225 223)"/><circle cx="95.13444" cy="53.34733" r="7.715581" fill="rgb(242 243 242)"/><circle cx="161.99916" cy="18.744726" r="4.7475224" fill="rgb(252 255 255)"/><circle cx="61.333866" cy="141.50064" r="6.0936494" fill="rgb(90 68 45)"/><circle cx="85.0107" cy="216.41742" r="4.7394547" fill="rgb(33 33 34)"/><circle cx="12.710355" cy="21.257654" r="18.91579" fill="rgb(255 255 255)"/><circle cx="164.96971" cy="82.350784" r="6.154169" fill="rgb(255 255 255)"/><circle cx="129.9982" cy="169.26862" r="7.287593" fill="rgb(210 158 56)"/><circle cx="82.173195" cy="146.59785" r="11.452701" fill="rgb(213 213 213)"/><circle cx="231.04697" cy="88.78983" r="20.975483" fill="rgb(255 255 255)"/><circle cx="180.9639" cy="83.46594" r="5.9906106" fill="rgb(255 255 255)"/><circle cx="97.729324" cy="234.81866" r="6.20643" fill="rgb(255 254 254)"/><circle cx="142.38713" cy="163.74095" r="4.0852494" fill="rgb(92 69 36)"/><circle cx="52.201397" cy="221.65974" r="18.66293" fill="rgb(255 255 255)"/><circle cx="200.44952" cy="40.55657" r="4.601679" fill="rgb(255 255 255)"/><circle cx="93.30381" cy="182.30779" r="6.692193" fill="rgb(21 25 48)"/><circle cx="123.500084" cy="105.27562" r="4.074911" fill="rgb(1 33 71)"/><circle cx="55.156944" cy="176.21227" r="5.952285" fill="rgb(110 144 197)"/><circle cx="189.2809" cy="9.190956" r="3.2808368" fill="rgb(150 150 150)"/><circle cx="107.10743" cy="170.40337" r="5.7326207" fill="rgb(221 169 57)"/><circle cx="151.43793" cy="77.40418" r="7.50647" fill="rgb(255 255 255)"/><circle cx="162.50415" cy="52.730385" r="8.339981" fill="rgb(169 52 53)"/><circle cx="55.51669" cy="100.775" r="12.433844" fill="rgb(5 93 157)"/><circle cx="41.63277" cy="10.06086" r="3.7196586" fill="rgb(62 61 61)"/><circle cx="137.3361" cy="120.5013" r="13.89898" fill="rgb(221 224 224)"/><circle cx="45.170547" cy="63.916378" r="9.353291" fill="rgb(255 255 255)"/><circle cx="133.26738" cy="98.70053" r="7.426025" fill="rgb(11 56 108)"/><circle cx="175.27943" cy="105.51175" r="14.709073" fill="rgb(24 99 170)"/><circle cx="69.87731" cy="177.23894" r="10.91878" fill="rgb(20 23 37)"/><circle cx="33.762096" cy="77.44361" r="2.1484938" fill="rgb(43 41 42)"/><circle cx="165.62843" cy="-3.7385924" r="12.019088" fill="rgb(255 255 255)"/><circle cx="195.01302" cy="92.55375" r="3.8640924" fill="rgb(12 33 54)"/><circle cx="115.705666" cy="108.91355" r="7.6526566" fill="rgb(0 8 36)"/><circle cx="203.08826" cy="3.477626" r="4.280064" fill="rgb(255 255 255)"/><circle cx="121.00374" cy="149.30928" r="4.1566257" fill="rgb(26 29 38)"/><circle cx="143.89456" cy="185.073" r="4.572887" fill="rgb(120 90 46)"/><circle cx="118.35261" cy="128.56981" r="6.5819154" fill="rgb(94 97 106)"/><circle cx="91.93996" cy="57.92709" r="4.322622" fill="rgb(77 66 65)"/><circle cx="197.59091" cy="134.24945" r="10.906689" fill="rgb(98 128 167)"/><circle cx="115.55726" cy="62.985012" r="11.148877" fill="rgb(126 40 37)"/><circle cx="235.83641" cy="137.86081" r="22.871792" fill="rgb(255 255 255)"/><circle cx="78.07163" cy="57.355755" r="9.843736" fill="rgb(136 44 48)"/><circle cx="40.912506" cy="40.203426" r="6.2005415" fill="rgb(197 197 197)"/><circle cx="55.7634" cy="19.051281" r="3.7600346" fill="rgb(255 255 255)"/><circle cx="119.35887" cy="160.21991" r="8.028574" fill="rgb(74 76 86)"/><circle cx="51.427635" cy="167.06963" r="7.2022123" fill="rgb(127 156 194)"/><circle cx="178.28014" cy="34.124775" r="7.179208" fill="rgb(241 243 242)"/><circle cx="47.446945" cy="30.919563" r="3.6587632" fill="rgb(125 45 46)"/><circle cx="172.18317" cy="166.13095" r="6.499789" fill="rgb(45 36 25)"/><circle cx="116.02458" cy="85.254196" r="4.6901083" fill="rgb(167 165 163)"/><circle cx="105.5219" cy="113.446556" r="9.530311" fill="rgb(177 177 176)"/><circle cx="158.6442" cy="217.87962" r="4.096646" fill="rgb(121 139 171)"/><circle cx="86.78118" cy="174.68002" r="5.3259354" fill="rgb(0 0 18)"/><circle cx="117.00113" cy="12.138331" r="4.2460747" fill="rgb(149 150 150)"/><circle cx="198.23851" cy="50.286396" r="4.3524065" fill="rgb(255 255 255)"/></svg>