<svg viewBox="0 0 245 250" xmlns="http://www.w3.org/2000/svg" width="245" height="250"><circle cx="21.620914" cy="167.59521" r="21.535873" fill="rgb(255 255 255)"/><circle cx="223.28098" cy="29.562466" r="20.82342" fill="rgb(255 255 255)"/><circle cx="5.3594894" cy="34.5905" r="23.555935" fill="rgb(255 255 255)"/><circle cx="224.2664" cy="162.66965" r="23.2948" fill="rgb(255 255 255)"/><circle cx="82.337456" cy="127.95903" r="22.571264" fill="rgb(96 91 87)"/><circle cx="215.93524" cy="106.78435" r="25" fill="rgb(255 255 255)"/><circle cx="42.79848" cy="233.69672" r="22.053316" fill="rgb(255 255 255)"/><circle cx="142.26837" cy="250" r="25" fill="rgb(255 255 255)"/><circle cx="203.5273" cy="22.741474" r="24.042719" fill="rgb(255 255 255)"/><circle cx="151.78761" cy="129.31505" r="23.24187" fill="rgb(252 252 252)"/><circle cx="221.09259" cy="206.13087" r="19.034678" fill="rgb(255 255 255)"/><circle cx="173.64233" cy="29.045197" r="14.994314" fill="rgb(233 237 236)"/><circle cx="179.67676" cy="236.76384" r="24.212265" fill="rgb(255 255 255)"/><circle cx="230.01712" cy="78.46688" r="24.825974" fill="rgb(255 255 255)"/><circle cx="79.92774" cy="27.582605" r="25" fill="rgb(255 255 255)"/><circle cx="203.03252" cy="250" r="11.241483" fill="rgb(255 255 255)"/><circle cx="12.76248" cy="227.23476" r="22.610672" fill="rgb(255 255 255)"/><circle cx="25.971455" cy="80.046295" r="18.439526" fill="rgb(254 255 255)"/><circle cx="51.723473" cy="145.59593" r="25" fill="rgb(120 160 206)"/><circle cx="65.68163" cy="226.95906" r="22.539585" fill="rgb(255 255 255)"/><circle cx="128.82867" cy="12.7636175" r="16.507011" fill="rgb(180 184 182)"/><circle cx="53.13272" cy="54.008625" r="24.000942" fill="rgb(125 92 93)"/><circle cx="167.93144" cy="181.57515" r="25" fill="rgb(10 9 23)"/><circle cx="0" cy="43.40751" r="25" fill="rgb(255 255 255)"/><circle cx="98.11189" cy="64.05246" r="24.430475" fill="rgb(176 50 50)"/><circle cx="23.980024" cy="197.55182" r="22.239872" fill="rgb(255 255 255)"/><circle cx="98.87081" cy="133.9377" r="25" fill="rgb(192 192 192)"/><circle cx="78.58505" cy="69.497986" r="22.014572" fill="rgb(167 165 164)"/><circle cx="232.20619" cy="140.81494" r="24.49355" fill="rgb(255 255 254)"/><circle cx="162.48114" cy="80.204254" r="17.696226" fill="rgb(167 165 164)"/><circle cx="153.58794" cy="208.11563" r="25" fill="rgb(149 171 211)"/><circle cx="238.34431" cy="186.09277" r="18.074965" fill="rgb(255 255 255)"/><circle cx="115.854836" cy="79.70305" r="17.60232" fill="rgb(167 165 163)"/><circle cx="153.19963" cy="16.172058" r="22.927433" fill="rgb(207 210 211)"/><circle cx="204.38055" cy="199.2703" r="22.456772" fill="rgb(255 255 255)"/><circle cx="52.81852" cy="88.48591" r="22.88847" fill="rgb(197 197 197)"/><circle cx="78.81006" cy="38.45228" r="21.618504" fill="rgb(253 255 255)"/><circle cx="192.98915" cy="88.1292" r="19.849693" fill="rgb(255 255 255)"/><circle cx="158.06573" cy="155.08286" r="12.431034" fill="rgb(255 255 255)"/><circle cx="89.75454" cy="-3.5416558" r="22.846006" fill="rgb(255 255 255)"/><circle cx="245.68752" cy="231.29454" r="22.227917" fill="rgb(255 255 255)"/><circle cx="20.518698" cy="74.11041" r="23.550392" fill="rgb(255 255 255)"/><circle cx="37.828506" cy="203.01329" r="23.87044" fill="rgb(255 255 255)"/><circle cx="71.93695" cy="203.10643" r="17.867062" fill="rgb(141 169 216)"/><circle cx="233.58705" cy="1.0957745" r="14.099458" fill="rgb(255 255 255)"/><circle cx="208.01987" cy="45.960285" r="18.25074" fill="rgb(255 255 255)"/><circle cx="150.49075" cy="252.76491" r="24.678387" fill="rgb(255 255 255)"/><circle cx="135.39256" cy="102.81293" r="16.078943" fill="rgb(15 109 177)"/><circle cx="32.29893" cy="0" r="10.302067" fill="rgb(255 255 255)"/><circle cx="38.620136" cy="43.046112" r="23.694012" fill="rgb(151 138 136)"/><circle cx="18.103249" cy="150.8997" r="17.936308" fill="rgb(255 255 255)"/><circle cx="116.82739" cy="175.26201" r="12.721215" fill="rgb(144 107 51)"/><circle cx="96.97939" cy="236.0236" r="24.980425" fill="rgb(254 255 255)"/><circle cx="179.26648" cy="-7.657307" r="17.020645" fill="rgb(255 255 255)"/><circle cx="199.27592" cy="102.04489" r="19.878502" fill="rgb(11 58 103)"/><circle cx="12.581946" cy="21.19354" r="23.949215" fill="rgb(255 255 255)"/><circle cx="116.94275" cy="213.79317" r="1.9358609" fill="rgb(196 210 230)"/><circle cx="241.6896" cy="55.31118" r="19.794157" fill="rgb(255 255 255)"/><circle cx="142.30145" cy="81.57037" r="16.500563" fill="rgb(201 203 204)"/><circle cx="100.47645" cy="201.11548" r="16.150492" fill="rgb(187 206 225)"/><circle cx="221.6213" cy="111.24953" r="12.855368" fill="rgb(255 255 254)"/><circle cx="220.34802" cy="227.51685" r="23.704601" fill="rgb(255 255 255)"/><circle cx="124.89718" cy="217.72464" r="20.159227" fill="rgb(139 165 206)"/><circle cx="19.132328" cy="177.92802" r="16.408627" fill="rgb(255 255 255)"/><circle cx="135.79051" cy="146.10254" r="18.937817" fill="rgb(254 254 254)"/><circle cx="189.6068" cy="222.82065" r="20.915617" fill="rgb(255 255 255)"/><circle cx="13.226341" cy="115.02205" r="24.320889" fill="rgb(255 255 255)"/><circle cx="70.47613" cy="165.65907" r="20.696045" fill="rgb(80 71 46)"/><circle cx="9.826688" cy="194.30421" r="18.921618" fill="rgb(255 255 255)"/><circle cx="48.227936" cy="101.46528" r="19.119368" fill="rgb(116 171 207)"/><circle cx="127.98888" cy="29.603506" r="16.831821" fill="rgb(254 254 255)"/><circle cx="68.22388" cy="50.871296" r="12.017929" fill="rgb(103 38 40)"/><circle cx="56.959923" cy="172.89003" r="18.97299" fill="rgb(75 107 153)"/><circle cx="191.60039" cy="151.88237" r="21.963135" fill="rgb(143 138 138)"/><circle cx="203.61795" cy="61.5083" r="12.595724" fill="rgb(158 154 157)"/><circle cx="171.3039" cy="104.22275" r="19.824314" fill="rgb(25 61 100)"/><circle cx="118.269905" cy="109.11299" r="19.739737" fill="rgb(108 110 119)"/><circle cx="183.64958" cy="185.21529" r="11.993759" fill="rgb(103 124 157)"/><circle cx="167.7563" cy="53.52445" r="17.960976" fill="rgb(175 51 53)"/><circle cx="19.191025" cy="249.15472" r="24.253288" fill="rgb(255 255 255)"/><circle cx="121.30982" cy="237.77443" r="7.2750072" fill="rgb(255 255 255)"/><circle cx="127.212006" cy="146.46652" r="17.805666" fill="rgb(143 146 148)"/><circle cx="126.964745" cy="175.14186" r="22.635729" fill="rgb(67 66 82)"/><circle cx="84.329094" cy="50.651825" r="9.373499" fill="rgb(176 56 55)"/><circle cx="36.93866" cy="57.19109" r="16.542398" fill="rgb(197 197 197)"/><circle cx="93.004776" cy="164.06487" r="14.847275" fill="rgb(184 184 186)"/><circle cx="106.90374" cy="13.29246" r="12.289443" fill="rgb(249 249 249)"/><circle cx="194.37343" cy="124.41699" r="16.905844" fill="rgb(71 135 180)"/><circle cx="117.43354" cy="215.70206" r="20.71237" fill="rgb(163 187 222)"/><circle cx="95.079025" cy="211.74399" r="19.456455" fill="rgb(148 168 210)"/><circle cx="0" cy="146.34247" r="25" fill="rgb(255 255 255)"/><circle cx="236.63783" cy="103.275795" r="20.844877" fill="rgb(255 255 255)"/><circle cx="-4.197156" cy="95.051544" r="23.894896" fill="rgb(255 255 255)"/><circle cx="52.991295" cy="17.298658" r="11.918946" fill="rgb(154 153 153)"/><circle cx="8.258378" cy="51.297672" r="18.648893" fill="rgb(255 255 255)"/><circle cx="61.213875" cy="99.91105" r="16.577736" fill="rgb(15 105 170)"/><circle cx="161.20523" cy="239.17107" r="18.364887" fill="rgb(255 255 254)"/><circle cx="148.18927" cy="59.601227" r="6.389917" fill="rgb(226 228 229)"/><circle cx="207.45529" cy="37.583687" r="7.56004" fill="rgb(157 155 156)"/><circle cx="96.44759" cy="58.057175" r="14.339276" fill="rgb(123 107 108)"/><circle cx="123.723" cy="80.9831" r="5.394067" fill="rgb(253 253 253)"/><circle cx="41.93112" cy="21.152079" r="12.251511" fill="rgb(228 228 228)"/><circle cx="214.3976" cy="0" r="25" fill="rgb(255 255 255)"/><circle cx="78.36025" cy="124.12239" r="6.960521" fill="rgb(230 230 229)"/><circle cx="91.36609" cy="104.69476" r="12.358688" fill="rgb(9 97 160)"/><circle cx="138.50662" cy="120.55302" r="17.161486" fill="rgb(229 230 229)"/><circle cx="99.45236" cy="172.74591" r="12.402984" fill="rgb(34 25 25)"/><circle cx="222.36339" cy="186.19818" r="24.384054" fill="rgb(255 255 255)"/><circle cx="130.51907" cy="59.099747" r="7.120047" fill="rgb(114 37 39)"/><circle cx="119.7615" cy="179.12198" r="22.895885" fill="rgb(162 124 58)"/><circle cx="58.109898" cy="255.9347" r="19.857977" fill="rgb(255 255 255)"/><circle cx="98.943634" cy="69.00518" r="12.540524" fill="rgb(234 234 232)"/><circle cx="184.56244" cy="66.64994" r="11.379625" fill="rgb(110 67 60)"/><circle cx="125.90197" cy="96.94357" r="10.8057375" fill="rgb(11 37 72)"/><circle cx="61.69975" cy="133.80795" r="14.044633" fill="rgb(95 72 46)"/><circle cx="238.25067" cy="24.206383" r="15.288388" fill="rgb(255 255 255)"/><circle cx="105.80837" cy="33.71657" r="9.884914" fill="rgb(223 57 67)"/><circle cx="42.904934" cy="126.12344" r="14.261689" fill="rgb(29 77 126)"/><circle cx="42.939583" cy="140.0757" r="13.629811" fill="rgb(92 143 193)"/><circle cx="69.547966" cy="170.95738" r="10.776068" fill="rgb(1 0 21)"/><circle cx="81.40969" cy="61.83719" r="10.472207" fill="rgb(121 90 90)"/><circle cx="81.78648" cy="-4.617855" r="22.282385" fill="rgb(150 150 150)"/><circle cx="112.14735" cy="229.63248" r="2.5253034" fill="rgb(52 59 76)"/><circle cx="174.62306" cy="125.74941" r="9.821093" fill="rgb(174 132 42)"/><circle cx="81.355515" cy="156.73709" r="10.389105" fill="rgb(242 241 241)"/><circle cx="209.12906" cy="20.612312" r="3.7819242" fill="rgb(56 55 55)"/><circle cx="37.778854" cy="110.55499" r="4.7570357" fill="rgb(29 120 180)"/><circle cx="64.82592" cy="155.19551" r="5.3471513" fill="rgb(17 13 17)"/><circle cx="156.70738" cy="30.942738" r="6.1261697" fill="rgb(127 25 27)"/><circle cx="149.17877" cy="99.68955" r="14.89363" fill="rgb(77 78 87)"/><circle cx="97.321884" cy="48.32994" r="6.042762" fill="rgb(209 214 212)"/><circle cx="108.28087" cy="-6.578497" r="13.926773" fill="rgb(255 255 255)"/><circle cx="59.726616" cy="-10.716634" r="19.511599" fill="rgb(255 255 255)"/><circle cx="145.33313" cy="45.95843" r="6.888325" fill="rgb(225 227 221)"/><circle cx="137.9445" cy="-2.4949088" r="9.899398" fill="rgb(249 249 249)"/><circle cx="125.35825" cy="194.58864" r="9.727769" fill="rgb(135 163 208)"/><circle cx="119.95091" cy="158.96022" r="9.280168" fill="rgb(91 93 101)"/><circle cx="138.51686" cy="144.17181" r="11.011135" fill="rgb(231 231 232)"/><circle cx="67.93528" cy="225.74602" r="12.03801" fill="rgb(254 254 255)"/><circle cx="93.12764" cy="-13.967503" r="20.7623" fill="rgb(255 255 255)"/><circle cx="123.822975" cy="54.514484" r="11.6437845" fill="rgb(161 51 54)"/><circle cx="166.6623" cy="124.17105" r="8.747431" fill="rgb(254 255 250)"/><circle cx="116.24387" cy="64.96023" r="12.940147" fill="rgb(129 106 106)"/><circle cx="207.47176" cy="45.023933" r="2.0010622" fill="rgb(57 54 55)"/><circle cx="68.61126" cy="160.87112" r="7.7530336" fill="rgb(26 32 50)"/><circle cx="99.73086" cy="117.870285" r="9.201286" fill="rgb(179 179 177)"/><circle cx="71.71357" cy="57.767456" r="14.803152" fill="rgb(115 41 40)"/><circle cx="211.84157" cy="155.35414" r="6.1912637" fill="rgb(255 255 255)"/><circle cx="177.55144" cy="39.47022" r="4.491446" fill="rgb(241 247 242)"/><circle cx="28.168915" cy="81.63956" r="11.50413" fill="rgb(224 224 224)"/><circle cx="73.64455" cy="-3.407708" r="10.670434" fill="rgb(249 249 249)"/><circle cx="167.74161" cy="84.79139" r="5.8317695" fill="rgb(255 255 255)"/><circle cx="38.806896" cy="102.063255" r="6.3357573" fill="rgb(14 108 179)"/><circle cx="206.67442" cy="76.67898" r="8.278539" fill="rgb(157 155 156)"/><circle cx="196.69946" cy="11.162284" r="8.380631" fill="rgb(150 150 150)"/><circle cx="90.60195" cy="144.60649" r="19.113386" fill="rgb(208 208 208)"/><circle cx="243.83904" cy="214.62524" r="24.39629" fill="rgb(255 255 255)"/><circle cx="179.7153" cy="79.80206" r="9.323125" fill="rgb(255 255 255)"/><circle cx="36.337437" cy="91.726036" r="6.2711396" fill="rgb(132 130 130)"/><circle cx="229.11569" cy="92.383606" r="17.23576" fill="rgb(255 255 255)"/><circle cx="176.51553" cy="177.73688" r="2.6130204" fill="rgb(1 0 16)"/><circle cx="60.643257" cy="221.43149" r="12.401634" fill="rgb(254 254 255)"/><circle cx="156.77937" cy="180.98889" r="9.031134" fill="rgb(11 12 23)"/><circle cx="101.48972" cy="192.14272" r="7.911588" fill="rgb(138 165 208)"/><circle cx="197.7942" cy="107.95117" r="8.999459" fill="rgb(29 116 175)"/><circle cx="106.82842" cy="10.291135" r="4.7012277" fill="rgb(61 61 61)"/><circle cx="79.54044" cy="102.93992" r="4.997177" fill="rgb(114 170 203)"/><circle cx="169.485" cy="59.07216" r="13.992289" fill="rgb(168 48 50)"/><circle cx="115.86835" cy="136.95348" r="9.924429" fill="rgb(63 63 74)"/><circle cx="103.580894" cy="137.03712" r="10.248311" fill="rgb(171 174 178)"/><circle cx="59.376984" cy="193.09882" r="7.1822176" fill="rgb(110 136 178)"/><circle cx="46.65724" cy="18.515944" r="16.50198" fill="rgb(154 153 154)"/><circle cx="39.10495" cy="92.44815" r="6.1409335" fill="rgb(44 42 45)"/><circle cx="36.691284" cy="206.58092" r="22.960154" fill="rgb(255 255 255)"/><circle cx="62.014835" cy="33.13602" r="6.1559777" fill="rgb(206 62 63)"/><circle cx="130.71103" cy="55.08332" r="10.623558" fill="rgb(158 47 46)"/><circle cx="108.70679" cy="83.54444" r="1.8098567" fill="rgb(255 255 255)"/><circle cx="153.03543" cy="57.978302" r="4.695655" fill="rgb(255 255 255)"/><circle cx="150.50797" cy="81.7731" r="7.157342" fill="rgb(255 255 255)"/><circle cx="136.3824" cy="195.66135" r="6.2662225" fill="rgb(135 163 208)"/><circle cx="27.797422" cy="-15.357014" r="23.213379" fill="rgb(255 255 255)"/><circle cx="119.60024" cy="52.870655" r="14.512097" fill="rgb(190 57 55)"/><circle cx="36.63277" cy="23.967907" r="10.902186" fill="rgb(197 197 198)"/><circle cx="191.39949" cy="33.022083" r="11.956485" fill="rgb(254 254 254)"/><circle cx="0.9466615" cy="87.223236" r="20.50457" fill="rgb(255 255 255)"/><circle cx="33.64181" cy="76.76659" r="2.5895958" fill="rgb(43 41 42)"/><circle cx="128.7417" cy="228.52583" r="6.1047297" fill="rgb(104 102 103)"/><circle cx="74.60569" cy="242.32217" r="23.009665" fill="rgb(255 255 255)"/><circle cx="177.18147" cy="147.76985" r="9.212796" fill="rgb(130 110 72)"/><circle cx="178.52113" cy="166.24889" r="6.496335" fill="rgb(42 28 19)"/><circle cx="118.77349" cy="113.265915" r="9.350998" fill="rgb(0 0 15)"/><circle cx="125.52607" cy="114.95946" r="6.3056245" fill="rgb(194 195 199)"/><circle cx="196.72658" cy="156.18799" r="12.036722" fill="rgb(98 128 167)"/><circle cx="133.27919" cy="147.27385" r="10.125304" fill="rgb(207 210 210)"/><circle cx="230.44919" cy="69.24448" r="19.342577" fill="rgb(255 255 255)"/><circle cx="160.54715" cy="126.94967" r="12.352207" fill="rgb(254 255 252)"/><circle cx="92.3177" cy="79.4338" r="7.933168" fill="rgb(255 254 255)"/><circle cx="66.58951" cy="85.92071" r="4.9657264" fill="rgb(167 165 164)"/><circle cx="49.602993" cy="114.159584" r="9.1670475" fill="rgb(62 126 176)"/><circle cx="122.946335" cy="-0.7679383" r="6.1649837" fill="rgb(255 255 255)"/><circle cx="195.02481" cy="148.38788" r="6.311683" fill="rgb(125 161 203)"/><circle cx="176.37819" cy="106.888306" r="6.1186533" fill="rgb(31 118 180)"/><circle cx="135.78036" cy="10.006787" r="5.3448505" fill="rgb(61 61 61)"/><circle cx="79.796936" cy="178.875" r="8.467094" fill="rgb(0 0 18)"/><circle cx="111.70859" cy="39.282738" r="6.2526507" fill="rgb(192 50 55)"/><circle cx="49.091167" cy="-0.42449263" r="7.7233357" fill="rgb(255 255 255)"/><circle cx="199.84995" cy="85.34296" r="4.004925" fill="rgb(255 255 255)"/><circle cx="192.45686" cy="43.40122" r="2.201954" fill="rgb(61 44 45)"/><circle cx="155.42235" cy="-1.8625683" r="8.954824" fill="rgb(249 249 249)"/><circle cx="173.3466" cy="124.75346" r="4.426945" fill="rgb(255 194 53)"/><circle cx="7.7500997" cy="127.873924" r="24.141027" fill="rgb(255 255 255)"/><circle cx="107.70985" cy="94.798004" r="6.974531" fill="rgb(12 31 55)"/><circle cx="86.82522" cy="219.23178" r="2.4742131" fill="rgb(24 25 32)"/><circle cx="48.391483" cy="74.2629" r="12.952806" fill="rgb(255 255 255)"/><circle cx="36.050705" cy="108.23539" r="6.3794" fill="rgb(38 37 44)"/><circle cx="51.373196" cy="31.277544" r="7.3035088" fill="rgb(193 50 54)"/><circle cx="-3.7363255" cy="190.45955" r="18.131409" fill="rgb(255 255 255)"/><circle cx="200.36786" cy="79.09669" r="5.1490107" fill="rgb(255 255 255)"/><circle cx="160.96109" cy="165.48425" r="4.6888504" fill="rgb(255 255 255)"/><circle cx="161.3305" cy="35.49102" r="3.9926324" fill="rgb(250 65 71)"/><circle cx="139.6288" cy="172.00911" r="8.530522" fill="rgb(171 131 58)"/><circle cx="32.45045" cy="178.9571" r="11.863817" fill="rgb(255 255 255)"/><circle cx="109.54707" cy="169.58922" r="5.3880434" fill="rgb(248 186 54)"/><circle cx="6.7589693" cy="50.128677" r="24.722599" fill="rgb(255 255 255)"/><circle cx="129.89531" cy="168.71521" r="4.497121" fill="rgb(253 185 37)"/><circle cx="105.011986" cy="82.52044" r="4.140792" fill="rgb(255 255 255)"/><circle cx="5.8262167" cy="171.27116" r="0.059819233" fill="rgb(255 255 255)"/><circle cx="148.27719" cy="22.31164" r="4.866288" fill="rgb(255 255 255)"/><circle cx="34.959797" cy="28.935701" r="3.644355" fill="rgb(45 41 42)"/><circle cx="123.20356" cy="183.41711" r="8.100868" fill="rgb(36 25 19)"/><circle cx="107.58265" cy="182.3353" r="6.4776697" fill="rgb(28 35 57)"/><circle cx="55.01968" cy="85.95221" r="3.7472255" fill="rgb(255 255 255)"/><circle cx="-4.5100718" cy="120.48492" r="4.565347" fill="rgb(255 255 255)"/><circle cx="195.0725" cy="16.59543" r="3.9590364" fill="rgb(255 255 255)"/><circle cx="196.80757" cy="71.83206" r="5.302203" fill="rgb(255 255 255)"/><circle cx="69.74775" cy="207.16454" r="2.589384" fill="rgb(22 22 27)"/><circle cx="72.55121" cy="204.39902" r="0.94042736" fill="rgb(117 127 142)"/><circle cx="207.05305" cy="127.64469" r="2.4388287" fill="rgb(54 54 60)"/><circle cx="46.340137" cy="38.614315" r="4.807929" fill="rgb(199 193 193)"/><circle cx="110.221535" cy="62.753834" r="2.946488" fill="rgb(126 40 37)"/><circle cx="65.81019" cy="63.221916" r="12.291014" fill="rgb(165 50 50)"/><circle cx="98.89457" cy="180.07297" r="6.5396347" fill="rgb(78 61 46)"/><circle cx="70.327675" cy="257.30295" r="16.526909" fill="rgb(255 255 255)"/><circle cx="206.03685" cy="9.679688" r="5.5795827" fill="rgb(155 155 155)"/><circle cx="96.80687" cy="125.06612" r="16.989922" fill="rgb(194 194 192)"/><circle cx="189.12389" cy="55.1289" r="4.3205357" fill="rgb(99 36 43)"/><circle cx="-0.70453995" cy="201.66457" r="24.930813" fill="rgb(255 255 255)"/><circle cx="135.01236" cy="2.9141777" r="5.503396" fill="rgb(255 255 255)"/><circle cx="118.72809" cy="105.87819" r="9.850069" fill="rgb(10 54 105)"/><circle cx="46.270367" cy="59.671562" r="5.3905225" fill="rgb(254 255 255)"/><circle cx="65.26706" cy="122.805824" r="3.3498025" fill="rgb(255 193 49)"/><circle cx="166.11491" cy="103.46118" r="11.679832" fill="rgb(14 106 170)"/><circle cx="153.7025" cy="99.72121" r="3.773979" fill="rgb(4 93 158)"/><circle cx="42.288296" cy="143.39777" r="13.141763" fill="rgb(94 120 156)"/><circle cx="61.782574" cy="46.47675" r="4.1746445" fill="rgb(175 58 60)"/><circle cx="86.35575" cy="155.44397" r="12.062161" fill="rgb(220 221 222)"/><circle cx="32.580257" cy="40.19578" r="3.5245545" fill="rgb(43 41 42)"/><circle cx="163.41951" cy="215.80603" r="3.695811" fill="rgb(87 86 89)"/><circle cx="212.76884" cy="168.03976" r="8.809717" fill="rgb(255 255 255)"/><circle cx="139.0847" cy="172.8923" r="5.2443814" fill="rgb(247 183 43)"/><circle cx="132.40256" cy="62.18931" r="10.237386" fill="rgb(170 52 55)"/><circle cx="152.87971" cy="68.9878" r="3.9167144" fill="rgb(255 255 255)"/><circle cx="235.05585" cy="88.805405" r="23.014889" fill="rgb(255 255 255)"/><circle cx="140.95604" cy="113.25006" r="4.4568815" fill="rgb(229 230 229)"/><circle cx="183.1226" cy="101.590065" r="10.018973" fill="rgb(4 95 157)"/><circle cx="63.687107" cy="81.70621" r="2.5314932" fill="rgb(255 255 255)"/><circle cx="69.23307" cy="131.19656" r="2.7769063" fill="rgb(141 132 129)"/><circle cx="109.18149" cy="227.70474" r="4.4875603" fill="rgb(51 51 58)"/><circle cx="151.07693" cy="69.66895" r="4.0116434" fill="rgb(251 254 253)"/><circle cx="86.387886" cy="68.25461" r="5.306933" fill="rgb(122 47 49)"/><circle cx="153.69394" cy="12.594575" r="6.4840956" fill="rgb(149 150 149)"/><circle cx="102.91667" cy="208.80302" r="17.981525" fill="rgb(147 171 212)"/><circle cx="119.612076" cy="147.3466" r="3.3026938" fill="rgb(34 37 47)"/><circle cx="138.38817" cy="33.4355" r="9.132074" fill="rgb(254 254 255)"/><circle cx="32.387745" cy="50.533913" r="2.5897746" fill="rgb(43 41 42)"/><circle cx="170.97696" cy="200.10245" r="11.026122" fill="rgb(113 138 179)"/><circle cx="107.34974" cy="-9.233693" r="14.242163" fill="rgb(255 255 255)"/><circle cx="177.20732" cy="158.71031" r="4.925538" fill="rgb(13 9 11)"/><circle cx="56.76344" cy="44.865314" r="6.045372" fill="rgb(199 55 60)"/><circle cx="208.45967" cy="22.119976" r="2.9437428" fill="rgb(56 55 55)"/><circle cx="175.44647" cy="177.83582" r="5.455188" fill="rgb(11 10 23)"/></svg>