<svg viewBox="0 0 245 250" xmlns="http://www.w3.org/2000/svg" width="245" height="250"><circle cx="225.69359" cy="98.09178" r="23.588915" fill="rgb(255 255 255)"/><circle cx="0" cy="208.54297" r="13.226544" fill="rgb(255 255 255)"/><circle cx="68.93008" cy="235.48268" r="22.56721" fill="rgb(255 255 255)"/><circle cx="143.21655" cy="59.154987" r="21.937725" fill="rgb(111 97 96)"/><circle cx="18.157104" cy="70.443665" r="24.78576" fill="rgb(255 255 255)"/><circle cx="175.9577" cy="232.95882" r="22.662882" fill="rgb(255 255 255)"/><circle cx="203.90887" cy="227.05356" r="20.664593" fill="rgb(255 255 255)"/><circle cx="6.328661" cy="146.06444" r="24.018017" fill="rgb(255 255 255)"/><circle cx="147.52707" cy="137.65404" r="24.587818" fill="rgb(233 233 231)"/><circle cx="219.04994" cy="16.128233" r="24.004602" fill="rgb(255 255 255)"/><circle cx="18.738409" cy="178.95137" r="20.671925" fill="rgb(255 255 255)"/><circle cx="208.77539" cy="50.464073" r="17.749935" fill="rgb(217 217 213)"/><circle cx="88.34854" cy="38.80946" r="25" fill="rgb(255 255 255)"/><circle cx="163.81708" cy="175.22205" r="25" fill="rgb(5 5 12)"/><circle cx="34.97492" cy="20.45296" r="24.81639" fill="rgb(255 255 255)"/><circle cx="117.86479" cy="250" r="25" fill="rgb(168 189 225)"/><circle cx="236.31189" cy="144.47438" r="25" fill="rgb(255 255 255)"/><circle cx="86.26838" cy="232.88821" r="21.86099" fill="rgb(255 255 255)"/><circle cx="102.5337" cy="212.72003" r="13.087271" fill="rgb(154 175 212)"/><circle cx="234.57042" cy="47.51039" r="23.560343" fill="rgb(255 255 255)"/><circle cx="97.769936" cy="90.71808" r="25" fill="rgb(13 31 55)"/><circle cx="9.079024" cy="113.89126" r="22.407892" fill="rgb(255 255 255)"/><circle cx="150.72775" cy="250" r="25" fill="rgb(255 255 255)"/><circle cx="245.76042" cy="227.26872" r="19.900724" fill="rgb(255 255 255)"/><circle cx="179.61322" cy="19.942917" r="19.224842" fill="rgb(249 249 249)"/><circle cx="96.2321" cy="122.41242" r="22.73143" fill="rgb(206 207 206)"/><circle cx="175.64153" cy="224.7509" r="20.889713" fill="rgb(255 255 255)"/><circle cx="11.832878" cy="236.77061" r="25" fill="rgb(255 255 255)"/><circle cx="45.58856" cy="69.26486" r="25" fill="rgb(255 254 254)"/><circle cx="3.32468" cy="24.908016" r="23.88045" fill="rgb(255 255 255)"/><circle cx="160.09665" cy="0" r="25" fill="rgb(255 255 255)"/><circle cx="11.013295" cy="56.120632" r="12.189596" fill="rgb(255 255 255)"/><circle cx="89.968445" cy="121.65251" r="25" fill="rgb(226 227 228)"/><circle cx="225.1028" cy="73.43523" r="12.465261" fill="rgb(255 255 255)"/><circle cx="155.58118" cy="204.88867" r="17.560207" fill="rgb(137 166 210)"/><circle cx="110.408394" cy="15.479486" r="25" fill="rgb(150 150 150)"/><circle cx="99.75711" cy="69.29414" r="22.94899" fill="rgb(121 90 90)"/><circle cx="238.14037" cy="197.1049" r="25" fill="rgb(255 255 255)"/><circle cx="255.8342" cy="247.16237" r="20.141392" fill="rgb(255 255 255)"/><circle cx="29.118507" cy="225.71132" r="24.107494" fill="rgb(255 255 255)"/><circle cx="4.0260553" cy="245.8956" r="10.523643" fill="rgb(255 255 255)"/><circle cx="230.19485" cy="236.0978" r="22.352476" fill="rgb(255 255 255)"/><circle cx="202.53851" cy="209.65733" r="19.607693" fill="rgb(255 255 255)"/><circle cx="160.6026" cy="1.7860271" r="19.4701" fill="rgb(227 229 228)"/><circle cx="163.27632" cy="148.10797" r="21.481573" fill="rgb(254 255 255)"/><circle cx="122.60084" cy="164.32887" r="22.675348" fill="rgb(160 120 47)"/><circle cx="227.32042" cy="79.21289" r="18.066738" fill="rgb(255 255 255)"/><circle cx="123.814896" cy="82.226845" r="13.389929" fill="rgb(165 165 162)"/><circle cx="97.64556" cy="52.93727" r="6.388182" fill="rgb(209 214 212)"/><circle cx="183.22346" cy="246.39899" r="11.623417" fill="rgb(255 255 255)"/><circle cx="53.99964" cy="113.05312" r="19.187891" fill="rgb(17 105 169)"/><circle cx="-4.5459046" cy="192.28358" r="12.571856" fill="rgb(255 255 255)"/><circle cx="186.49448" cy="148.56686" r="23.119354" fill="rgb(135 170 205)"/><circle cx="62.125286" cy="47.383865" r="15.210315" fill="rgb(124 36 41)"/><circle cx="155.96936" cy="80.93246" r="22.407858" fill="rgb(165 165 162)"/><circle cx="214.48538" cy="167.50087" r="18.865341" fill="rgb(255 255 255)"/><circle cx="175.94475" cy="87.70932" r="18.863258" fill="rgb(167 166 164)"/><circle cx="122.18185" cy="99.56531" r="12.328023" fill="rgb(9 85 143)"/><circle cx="44.24141" cy="140.72289" r="20.555292" fill="rgb(99 146 192)"/><circle cx="81.75911" cy="92.214134" r="18.658278" fill="rgb(15 108 168)"/><circle cx="133.72429" cy="26.6151" r="16.948679" fill="rgb(255 255 255)"/><circle cx="181.86052" cy="-3.628388" r="22.69247" fill="rgb(255 255 255)"/><circle cx="187.68594" cy="158.95699" r="21.252138" fill="rgb(75 76 80)"/><circle cx="86.35521" cy="75.11011" r="17.020073" fill="rgb(255 255 255)"/><circle cx="74.172615" cy="64.0063" r="17.757818" fill="rgb(128 49 47)"/><circle cx="44.1337" cy="23.56323" r="17.015244" fill="rgb(150 150 150)"/><circle cx="118.32513" cy="252.7493" r="15.081834" fill="rgb(255 255 255)"/><circle cx="217.96556" cy="129.50092" r="10.262369" fill="rgb(249 249 245)"/><circle cx="196.44492" cy="99.48305" r="16.041368" fill="rgb(4 95 160)"/><circle cx="152.64543" cy="149.84099" r="16.401804" fill="rgb(255 255 255)"/><circle cx="133.93388" cy="117.022835" r="13.723591" fill="rgb(231 232 233)"/><circle cx="12.879921" cy="159.47258" r="24.47825" fill="rgb(255 255 255)"/><circle cx="54.890175" cy="173.62907" r="17.761047" fill="rgb(118 140 171)"/><circle cx="124.984634" cy="-14.271059" r="22.802382" fill="rgb(249 249 249)"/><circle cx="200.07326" cy="33.221855" r="22.20222" fill="rgb(255 255 255)"/><circle cx="65.00319" cy="138.5357" r="9.773075" fill="rgb(113 88 33)"/><circle cx="153.88458" cy="100.9187" r="13.394535" fill="rgb(17 105 169)"/><circle cx="174.73509" cy="196.25412" r="13.314336" fill="rgb(119 136 171)"/><circle cx="25.292852" cy="86.61413" r="12.546884" fill="rgb(196 197 196)"/><circle cx="129.73064" cy="211.80942" r="22.582317" fill="rgb(185 204 225)"/><circle cx="49.110233" cy="213.37163" r="21.790369" fill="rgb(255 255 255)"/><circle cx="153.50421" cy="77.98283" r="8.874225" fill="rgb(255 255 255)"/><circle cx="36.166176" cy="48.26923" r="12.33802" fill="rgb(197 197 197)"/><circle cx="196.55402" cy="250" r="15.8924885" fill="rgb(255 255 255)"/><circle cx="202.70134" cy="142.00772" r="5.3136873" fill="rgb(66 116 175)"/><circle cx="227.612" cy="174.16173" r="23.174805" fill="rgb(255 255 255)"/><circle cx="96.5798" cy="205.21341" r="20.681862" fill="rgb(135 163 204)"/><circle cx="6.7732835" cy="92.35007" r="23.112476" fill="rgb(255 255 255)"/><circle cx="9.943067" cy="-6.1520796" r="20.72525" fill="rgb(255 255 255)"/><circle cx="35.953533" cy="259.47153" r="23.13216" fill="rgb(255 255 255)"/><circle cx="16.729113" cy="47.991837" r="13.270106" fill="rgb(255 255 255)"/><circle cx="115.22904" cy="49.429394" r="12.654902" fill="rgb(118 38 39)"/><circle cx="5.298689" cy="216.29405" r="22.487808" fill="rgb(255 255 255)"/><circle cx="68.395775" cy="80.12239" r="4.620472" fill="rgb(255 255 255)"/><circle cx="236.99161" cy="115.13988" r="24.979347" fill="rgb(255 255 255)"/><circle cx="191.60565" cy="167.54707" r="10.995023" fill="rgb(124 153 191)"/><circle cx="145.58075" cy="131.85553" r="22.13414" fill="rgb(207 209 212)"/><circle cx="63.681908" cy="0" r="10.941847" fill="rgb(255 255 255)"/><circle cx="198.62915" cy="73.26676" r="7.5546336" fill="rgb(253 255 253)"/><circle cx="189.76598" cy="183.0906" r="11.510988" fill="rgb(119 136 171)"/><circle cx="162.13667" cy="32.97974" r="8.696447" fill="rgb(100 49 49)"/><circle cx="228.36392" cy="-11.532954" r="22.786537" fill="rgb(255 255 255)"/><circle cx="24.419771" cy="196.2086" r="15.36793" fill="rgb(255 255 255)"/><circle cx="117.049736" cy="163.79153" r="5.7957063" fill="rgb(26 22 18)"/><circle cx="174.04025" cy="7.172052" r="14.220711" fill="rgb(150 150 150)"/><circle cx="105.13879" cy="141.62769" r="12.5017185" fill="rgb(185 185 184)"/><circle cx="205.56197" cy="34.013287" r="3.1673825" fill="rgb(157 155 156)"/><circle cx="143.40817" cy="37.4572" r="8.846553" fill="rgb(255 255 255)"/><circle cx="215.51158" cy="192.86557" r="24.05608" fill="rgb(255 255 255)"/><circle cx="148.52658" cy="12.460371" r="3.4778094" fill="rgb(61 61 61)"/><circle cx="70.417366" cy="197.081" r="13.240253" fill="rgb(110 135 178)"/><circle cx="195.31656" cy="58.855385" r="5.165739" fill="rgb(138 140 142)"/><circle cx="87.103584" cy="158.74626" r="12.87614" fill="rgb(221 221 222)"/><circle cx="193.43428" cy="129.45631" r="13.442637" fill="rgb(43 112 178)"/><circle cx="194.12523" cy="112.21226" r="17.010576" fill="rgb(29 116 175)"/><circle cx="16.019278" cy="131.23433" r="15.818983" fill="rgb(255 255 255)"/><circle cx="140.56569" cy="176.89189" r="9.100284" fill="rgb(177 131 45)"/><circle cx="172.97124" cy="133.44211" r="7.953806" fill="rgb(132 118 100)"/><circle cx="113.81413" cy="106.7366" r="2.8917441" fill="rgb(4 3 16)"/><circle cx="138.87321" cy="201.34494" r="13.399036" fill="rgb(139 167 207)"/><circle cx="84.94566" cy="50.09556" r="6.9176297" fill="rgb(176 56 55)"/><circle cx="206.90092" cy="24.288836" r="3.6422706" fill="rgb(56 55 55)"/><circle cx="196.85953" cy="11.676265" r="5.9239936" fill="rgb(155 155 155)"/><circle cx="219.55478" cy="89.91802" r="6.96135" fill="rgb(255 255 255)"/><circle cx="38.55057" cy="146.5437" r="7.50234" fill="rgb(45 55 76)"/><circle cx="43.274776" cy="93.59402" r="6.9927554" fill="rgb(5 93 157)"/><circle cx="107.33169" cy="216.63486" r="15.946552" fill="rgb(153 175 212)"/><circle cx="82.365524" cy="26.196619" r="16.081945" fill="rgb(254 255 255)"/><circle cx="185.0362" cy="-3.7482753" r="12.967762" fill="rgb(255 255 255)"/><circle cx="176.43045" cy="85.90062" r="7.9833355" fill="rgb(255 255 255)"/><circle cx="106.033516" cy="34.658054" r="10.991659" fill="rgb(159 46 49)"/><circle cx="151.315" cy="130.87613" r="17.477724" fill="rgb(231 232 233)"/><circle cx="9.112105" cy="243.72652" r="11.43208" fill="rgb(255 255 255)"/><circle cx="98.64538" cy="175.43535" r="14.249005" fill="rgb(87 66 42)"/><circle cx="188.04465" cy="201.33466" r="3.8294144" fill="rgb(254 254 255)"/><circle cx="39.255165" cy="69.96812" r="10.484089" fill="rgb(197 197 197)"/><circle cx="193.27385" cy="150.50159" r="10.996272" fill="rgb(125 161 201)"/><circle cx="115.355446" cy="113.87168" r="5.632747" fill="rgb(29 29 41)"/><circle cx="162.39555" cy="122.61693" r="9.22208" fill="rgb(255 255 255)"/><circle cx="140.97847" cy="11.680682" r="5.890773" fill="rgb(150 150 150)"/><circle cx="206.5353" cy="53.7025" r="5.7739387" fill="rgb(156 158 157)"/><circle cx="197.57384" cy="79.66192" r="9.579155" fill="rgb(253 255 253)"/><circle cx="169.30075" cy="-7.56688" r="15.550714" fill="rgb(255 255 255)"/><circle cx="117.26282" cy="148.01646" r="7.4459743" fill="rgb(91 93 101)"/><circle cx="87.54735" cy="148.24161" r="15.479065" fill="rgb(215 215 215)"/><circle cx="119.50892" cy="218.35435" r="20.663261" fill="rgb(136 162 206)"/><circle cx="114.91609" cy="121.71139" r="9.293614" fill="rgb(76 77 88)"/><circle cx="132.23157" cy="149.53983" r="8.03651" fill="rgb(219 220 220)"/><circle cx="44.64395" cy="52.2689" r="8.068659" fill="rgb(255 255 255)"/><circle cx="177.28387" cy="28.079151" r="12.73323" fill="rgb(255 255 255)"/><circle cx="23.61879" cy="179.74817" r="19.067892" fill="rgb(255 255 255)"/><circle cx="178.72482" cy="119.770966" r="5.817751" fill="rgb(70 60 32)"/><circle cx="19.641098" cy="100.31988" r="12.54483" fill="rgb(255 255 255)"/><circle cx="172.41707" cy="168.98119" r="5.3600616" fill="rgb(6 5 18)"/><circle cx="164.76048" cy="49.94214" r="13.001423" fill="rgb(122 42 40)"/><circle cx="174.14632" cy="56.752197" r="19.299154" fill="rgb(110 67 60)"/><circle cx="111.03075" cy="170.46477" r="6.9949074" fill="rgb(203 152 57)"/><circle cx="114.49802" cy="0" r="6.80764" fill="rgb(255 255 255)"/><circle cx="35.35158" cy="194.82454" r="15.794357" fill="rgb(255 255 255)"/><circle cx="81.86748" cy="101.710335" r="14.984327" fill="rgb(12 87 144)"/><circle cx="91.28458" cy="-15.189245" r="23.187765" fill="rgb(249 249 249)"/><circle cx="180.53433" cy="36.878136" r="7.4876413" fill="rgb(241 247 242)"/><circle cx="34.305492" cy="128.43799" r="2.9990141" fill="rgb(41 39 43)"/><circle cx="100.17358" cy="78.02284" r="9.853979" fill="rgb(255 255 255)"/><circle cx="69.97638" cy="178.35928" r="8.754809" fill="rgb(5 6 24)"/><circle cx="122.95144" cy="100.49958" r="10.59968" fill="rgb(12 32 55)"/><circle cx="76.01833" cy="71.5286" r="2.1522658" fill="rgb(243 242 244)"/><circle cx="212.69167" cy="15.740541" r="8.0979395" fill="rgb(157 155 156)"/><circle cx="94.33678" cy="39.799778" r="6.8594584" fill="rgb(255 255 255)"/><circle cx="101.07501" cy="55.799267" r="6.0418944" fill="rgb(255 255 255)"/><circle cx="220.33423" cy="16.95817" r="10.960459" fill="rgb(255 255 255)"/><circle cx="145.8688" cy="48.167355" r="6.808905" fill="rgb(207 210 211)"/><circle cx="44.175" cy="24.421036" r="7.9912047" fill="rgb(255 255 255)"/><circle cx="104.40049" cy="97.55392" r="4.669047" fill="rgb(10 94 155)"/><circle cx="48.412964" cy="-9.711683" r="17.758326" fill="rgb(255 255 255)"/><circle cx="68.55574" cy="82.239586" r="6.8657203" fill="rgb(221 218 220)"/><circle cx="136.21729" cy="109.033646" r="3.3416567" fill="rgb(180 180 186)"/><circle cx="145.03918" cy="223.32178" r="4.3844104" fill="rgb(31 31 36)"/><circle cx="194.6825" cy="178.29207" r="4.403252" fill="rgb(28 37 61)"/><circle cx="122.47151" cy="60.271435" r="12.799638" fill="rgb(167 50 52)"/><circle cx="66.81278" cy="166.39786" r="8.009855" fill="rgb(30 35 58)"/><circle cx="150.9859" cy="61.211155" r="4.2179737" fill="rgb(244 245 246)"/><circle cx="65.03204" cy="12.132537" r="4.1256495" fill="rgb(61 61 61)"/><circle cx="187.80255" cy="12.307085" r="5.1549773" fill="rgb(150 150 150)"/><circle cx="173.64406" cy="103.43266" r="16.134222" fill="rgb(12 91 155)"/><circle cx="112.34202" cy="48.998943" r="9.84881" fill="rgb(153 39 37)"/><circle cx="67.571686" cy="127.622055" r="4.598983" fill="rgb(166 126 40)"/><circle cx="100.92515" cy="109.7973" r="7.2329383" fill="rgb(153 153 153)"/><circle cx="34.36537" cy="51.95113" r="3.7557728" fill="rgb(43 41 41)"/><circle cx="114.013306" cy="260.01572" r="23.545078" fill="rgb(255 255 255)"/><circle cx="130.50851" cy="83.20359" r="7.0756745" fill="rgb(220 221 219)"/><circle cx="53.634052" cy="28.962452" r="9.029557" fill="rgb(244 69 69)"/><circle cx="123.94933" cy="97.70395" r="5.191053" fill="rgb(9 85 143)"/><circle cx="139.35513" cy="92.23372" r="4.7572765" fill="rgb(13 31 52)"/><circle cx="42.242767" cy="169.71893" r="4.4149523" fill="rgb(26 30 34)"/><circle cx="114.659805" cy="19.317194" r="6.605561" fill="rgb(255 255 255)"/><circle cx="80.14829" cy="212.78307" r="3.4562087" fill="rgb(40 49 67)"/><circle cx="93.40052" cy="222.4184" r="1.8665435" fill="rgb(106 116 142)"/><circle cx="134.41661" cy="227.79535" r="7.856573" fill="rgb(78 90 113)"/><circle cx="136.13132" cy="244.35027" r="13.684013" fill="rgb(255 255 254)"/><circle cx="0" cy="0" r="25" fill="rgb(255 255 255)"/><circle cx="210.41406" cy="34.248314" r="2.8506522" fill="rgb(56 54 55)"/><circle cx="118.56194" cy="81.773506" r="7.2386603" fill="rgb(220 221 219)"/><circle cx="165.99287" cy="211.43565" r="2.7771509" fill="rgb(40 43 49)"/><circle cx="34.019627" cy="66.20301" r="5.238689" fill="rgb(43 41 42)"/><circle cx="72.31158" cy="120.26835" r="3.0128694" fill="rgb(197 197 197)"/><circle cx="117.85272" cy="160.44618" r="5.5264454" fill="rgb(91 93 101)"/><circle cx="207.14265" cy="47.946148" r="3.9375522" fill="rgb(56 55 55)"/><circle cx="187.32285" cy="208.71155" r="9.187107" fill="rgb(255 255 255)"/><circle cx="149.37799" cy="220.24725" r="3.5368836" fill="rgb(93 107 133)"/><circle cx="180.20052" cy="166.04619" r="4.2937226" fill="rgb(7 5 17)"/><circle cx="42.842342" cy="47.580612" r="7.724385" fill="rgb(255 255 255)"/><circle cx="134.46347" cy="-15.554074" r="18.865976" fill="rgb(255 255 255)"/><circle cx="97.56234" cy="20.363895" r="5.1083155" fill="rgb(255 255 255)"/><circle cx="65.11604" cy="23.239042" r="5.4757304" fill="rgb(255 255 255)"/><circle cx="173.36017" cy="128.7471" r="7.40865" fill="rgb(192 141 36)"/><circle cx="92.567505" cy="180.50789" r="6.29069" fill="rgb(16 21 40)"/><circle cx="147.42424" cy="70.71478" r="4.773102" fill="rgb(237 238 238)"/><circle cx="38.53665" cy="95.1913" r="8.283649" fill="rgb(15 78 131)"/><circle cx="54.917046" cy="16.316284" r="7.0070457" fill="rgb(150 150 150)"/><circle cx="114.040665" cy="209.57567" r="17.7669" fill="rgb(153 175 213)"/><circle cx="208.86551" cy="41.35357" r="6.0188274" fill="rgb(157 156 156)"/><circle cx="10.322165" cy="25.099945" r="19.97343" fill="rgb(255 255 255)"/><circle cx="189.7636" cy="103.267265" r="11.432518" fill="rgb(28 116 177)"/><circle cx="227.83372" cy="46.263313" r="16.44794" fill="rgb(255 255 255)"/><circle cx="132.26857" cy="213.91608" r="6.2161393" fill="rgb(164 186 221)"/><circle cx="126.80988" cy="135.61508" r="0.6751002" fill="rgb(144 145 151)"/><circle cx="152.5949" cy="54.167732" r="2.9433255" fill="rgb(244 245 246)"/><circle cx="184.30283" cy="77.39563" r="5.868528" fill="rgb(255 255 255)"/><circle cx="207.4565" cy="83.24901" r="4.2916336" fill="rgb(58 59 59)"/><circle cx="36.25041" cy="13.648092" r="3.243578" fill="rgb(44 41 43)"/><circle cx="101.09199" cy="2.137422" r="5.746613" fill="rgb(249 249 249)"/><circle cx="53.55305" cy="20.815254" r="6.563536" fill="rgb(255 255 255)"/><circle cx="77.75098" cy="76.56949" r="5.6276746" fill="rgb(137 140 138)"/><circle cx="207.48431" cy="28.6853" r="5.172611" fill="rgb(157 155 156)"/><circle cx="101.38964" cy="122.44589" r="6.441186" fill="rgb(213 213 211)"/><circle cx="122.59134" cy="230.009" r="2.0742362" fill="rgb(69 75 96)"/><circle cx="126.75938" cy="253.0795" r="19.187918" fill="rgb(254 255 255)"/><circle cx="40.039852" cy="157.90886" r="6.23299" fill="rgb(144 141 139)"/><circle cx="41.5693" cy="38.608902" r="5.263192" fill="rgb(255 255 255)"/><circle cx="58.42803" cy="29.101675" r="7.3232217" fill="rgb(97 49 54)"/><circle cx="62.144222" cy="119.67646" r="8.821631" fill="rgb(117 92 57)"/><circle cx="150.75586" cy="201.8376" r="12.526646" fill="rgb(153 176 218)"/><circle cx="160.35373" cy="129.61488" r="7.024966" fill="rgb(255 255 255)"/><circle cx="130.44661" cy="27.392517" r="15.107044" fill="rgb(246 252 251)"/><circle cx="206.13144" cy="95.52242" r="4.576997" fill="rgb(56 55 59)"/><circle cx="132.12029" cy="171.2831" r="5.516718" fill="rgb(247 186 39)"/><circle cx="6.157009" cy="68.246666" r="24.162804" fill="rgb(255 255 255)"/><circle cx="80.03242" cy="81.4509" r="4.07475" fill="rgb(255 255 255)"/><circle cx="71.01191" cy="31.083342" r="6.5820374" fill="rgb(218 219 219)"/><circle cx="72.946526" cy="24.194233" r="11.522194" fill="rgb(254 254 254)"/><circle cx="178.2383" cy="51.45198" r="8.94583" fill="rgb(122 42 40)"/><circle cx="139.60385" cy="84.91517" r="3.877527" fill="rgb(246 247 246)"/><circle cx="59.99129" cy="20.240765" r="2.9638653" fill="rgb(255 255 255)"/><circle cx="47.11644" cy="75.7838" r="11.076633" fill="rgb(253 253 254)"/><circle cx="134.34651" cy="118.095184" r="10.069604" fill="rgb(202 202 203)"/><circle cx="167.10802" cy="0.022594351" r="6.607641" fill="rgb(249 249 249)"/><circle cx="156.54456" cy="-8.29747" r="15.820444" fill="rgb(249 249 249)"/><circle cx="169.9769" cy="61.288982" r="12.829168" fill="rgb(170 52 51)"/><circle cx="198.27151" cy="170.01825" r="4.0657496" fill="rgb(45 52 66)"/><circle cx="208.96414" cy="17.221792" r="1.9699249" fill="rgb(95 94 94)"/><circle cx="47.454147" cy="106.23761" r="13.809934" fill="rgb(17 104 171)"/><circle cx="161.42665" cy="11.339669" r="2.8380816" fill="rgb(61 61 61)"/><circle cx="153.38016" cy="220.1075" r="4.1193967" fill="rgb(25 24 31)"/><circle cx="175.81084" cy="180.65738" r="6.8684115" fill="rgb(14 16 38)"/><circle cx="155.702" cy="34.156864" r="4.922507" fill="rgb(201 60 60)"/><circle cx="46.179565" cy="151.4958" r="8.390953" fill="rgb(127 156 192)"/><circle cx="58.74426" cy="90.78704" r="3.5010822" fill="rgb(13 32 53)"/><circle cx="172.17128" cy="185.06528" r="2.829737" fill="rgb(13 15 39)"/><circle cx="81.417656" cy="-3.5413587" r="11.041625" fill="rgb(249 249 249)"/><circle cx="228.88966" cy="156.99763" r="21.466091" fill="rgb(255 255 254)"/><circle cx="201.34143" cy="209.19916" r="18.466675" fill="rgb(255 255 255)"/><circle cx="54.80693" cy="44.8736" r="5.8014255" fill="rgb(185 51 57)"/><circle cx="203.93329" cy="110.27723" r="6.45727" fill="rgb(71 100 124)"/><circle cx="208.32181" cy="88.42628" r="0.27998692" fill="rgb(58 59 59)"/><circle cx="53.22984" cy="95.1419" r="6.889714" fill="rgb(15 105 172)"/><circle cx="99.70341" cy="99.704" r="3.846509" fill="rgb(5 54 106)"/><circle cx="159.86258" cy="239.7712" r="16.752602" fill="rgb(255 255 255)"/></svg>