<svg viewBox="0 0 245 250" xmlns="http://www.w3.org/2000/svg" width="245" height="250"><circle cx="24.120066" cy="30.68104" r="24.202559" fill="rgb(255 255 255)"/><circle cx="218.31085" cy="43.953518" r="25" fill="rgb(255 255 255)"/><circle cx="221.23993" cy="145.90582" r="24.672531" fill="rgb(255 255 255)"/><circle cx="32.80265" cy="243.87263" r="22.652035" fill="rgb(255 255 255)"/><circle cx="214.53217" cy="216.15869" r="25" fill="rgb(255 255 255)"/><circle cx="29.563046" cy="198.85654" r="24.342426" fill="rgb(255 255 255)"/><circle cx="192.17058" cy="229.9386" r="24.325161" fill="rgb(255 255 255)"/><circle cx="231.11806" cy="117.17451" r="24.378326" fill="rgb(255 255 255)"/><circle cx="63.87408" cy="230.015" r="24.20311" fill="rgb(255 255 255)"/><circle cx="227.69087" cy="89.44604" r="24.065403" fill="rgb(255 255 255)"/><circle cx="92.61085" cy="204.31778" r="15.860069" fill="rgb(190 207 227)"/><circle cx="0" cy="46.268284" r="20.196095" fill="rgb(255 255 255)"/><circle cx="223.40872" cy="189.04552" r="24.159513" fill="rgb(255 255 255)"/><circle cx="81.04254" cy="23.20022" r="25" fill="rgb(255 255 255)"/><circle cx="158.54868" cy="46.45056" r="18.055317" fill="rgb(167 51 48)"/><circle cx="14.228002" cy="109.38707" r="20.17564" fill="rgb(255 255 255)"/><circle cx="151.04303" cy="137.31865" r="24.735706" fill="rgb(255 254 254)"/><circle cx="8.895133" cy="164.26549" r="24.416037" fill="rgb(255 255 255)"/><circle cx="133.07117" cy="27.937172" r="22.81859" fill="rgb(254 254 254)"/><circle cx="59.009647" cy="140.32414" r="15.897315" fill="rgb(41 31 26)"/><circle cx="89.39828" cy="245.51459" r="21.791918" fill="rgb(255 255 255)"/><circle cx="148.7738" cy="192.85727" r="24.091722" fill="rgb(135 162 208)"/><circle cx="165.0235" cy="240.52931" r="24.487215" fill="rgb(255 255 255)"/><circle cx="94.26153" cy="159.68867" r="23.133276" fill="rgb(217 219 219)"/><circle cx="228.16873" cy="7.7370443" r="18.136377" fill="rgb(255 255 255)"/><circle cx="93.84942" cy="85.46194" r="24.597181" fill="rgb(137 99 97)"/><circle cx="0.01004152" cy="232.19075" r="20.755777" fill="rgb(255 255 255)"/><circle cx="133.97673" cy="252.90918" r="24.559793" fill="rgb(255 255 255)"/><circle cx="147.02016" cy="82.94699" r="24.093113" fill="rgb(180 180 186)"/><circle cx="51.95196" cy="80.33152" r="17.11747" fill="rgb(255 255 255)"/><circle cx="240.7403" cy="237.7702" r="18.001795" fill="rgb(255 255 255)"/><circle cx="140.97932" cy="-0.3074836" r="24.84148" fill="rgb(254 254 254)"/><circle cx="108.984604" cy="208.34573" r="18.564909" fill="rgb(149 170 213)"/><circle cx="198.58017" cy="79.911865" r="20.50916" fill="rgb(166 164 163)"/><circle cx="7.4085035" cy="142.60045" r="22.573723" fill="rgb(255 255 255)"/><circle cx="55.71176" cy="110.99256" r="23.367025" fill="rgb(48 95 133)"/><circle cx="102.32347" cy="52.108906" r="25" fill="rgb(154 127 134)"/><circle cx="187.96605" cy="132.34265" r="24.648497" fill="rgb(164 158 162)"/><circle cx="7.967122" cy="6.999852" r="21.670992" fill="rgb(255 255 255)"/><circle cx="83.985405" cy="38.8434" r="16.569733" fill="rgb(255 255 254)"/><circle cx="40.779175" cy="158.87775" r="19.284914" fill="rgb(143 171 203)"/><circle cx="39.841084" cy="13.760164" r="24.439444" fill="rgb(255 255 255)"/><circle cx="193.29253" cy="193.5183" r="15.003764" fill="rgb(255 255 255)"/><circle cx="11.06953" cy="82.62657" r="14.856877" fill="rgb(255 255 255)"/><circle cx="96.25909" cy="70.50117" r="17.760555" fill="rgb(209 214 212)"/><circle cx="124.478" cy="69.62535" r="15.790533" fill="rgb(134 69 70)"/><circle cx="10.085352" cy="42.360256" r="18.59625" fill="rgb(255 255 255)"/><circle cx="3.975408" cy="195.30609" r="24.967573" fill="rgb(255 255 255)"/><circle cx="119.31066" cy="120.984314" r="22.983864" fill="rgb(128 128 135)"/><circle cx="194.6791" cy="113.073235" r="23.025015" fill="rgb(16 103 172)"/><circle cx="231.79457" cy="55.180134" r="23.017832" fill="rgb(255 255 255)"/><circle cx="84.39345" cy="204.7498" r="17.71103" fill="rgb(137 165 208)"/><circle cx="231.76038" cy="256.17313" r="23.629335" fill="rgb(255 255 255)"/><circle cx="118.287476" cy="177.95947" r="22.372423" fill="rgb(77 61 30)"/><circle cx="190.73645" cy="168.51746" r="18.244913" fill="rgb(108 140 190)"/><circle cx="173.93742" cy="54.452618" r="21.49849" fill="rgb(168 48 50)"/><circle cx="199.62155" cy="14.426429" r="10.902023" fill="rgb(155 155 155)"/><circle cx="189.44472" cy="216.12158" r="16.69431" fill="rgb(254 255 254)"/><circle cx="53.51104" cy="32.607063" r="9.860175" fill="rgb(193 50 54)"/><circle cx="115.109924" cy="80.08279" r="6.743283" fill="rgb(255 255 255)"/><circle cx="62.13387" cy="53.184395" r="18.172916" fill="rgb(100 43 44)"/><circle cx="47.64776" cy="142.27013" r="11.637982" fill="rgb(72 127 185)"/><circle cx="147.53621" cy="218.97893" r="8.796041" fill="rgb(93 107 133)"/><circle cx="146.10371" cy="144.73488" r="23.984987" fill="rgb(213 213 213)"/><circle cx="39.346226" cy="49.06857" r="19.502977" fill="rgb(165 145 147)"/><circle cx="87.76079" cy="175.17517" r="11.272132" fill="rgb(20 23 40)"/><circle cx="101.42832" cy="5.972676" r="21.645391" fill="rgb(213 203 207)"/><circle cx="105.38395" cy="250.06586" r="19.573008" fill="rgb(255 255 255)"/><circle cx="83.0792" cy="57.960205" r="10.617457" fill="rgb(98 73 74)"/><circle cx="154.94197" cy="177.3159" r="19.286636" fill="rgb(77 61 30)"/><circle cx="121.305664" cy="212.64008" r="24.263659" fill="rgb(138 165 206)"/><circle cx="159.3158" cy="4.614014" r="23.487709" fill="rgb(208 198 198)"/><circle cx="60.875134" cy="182.13213" r="14.583596" fill="rgb(110 136 178)"/><circle cx="242.62633" cy="204.63194" r="24.320347" fill="rgb(255 255 255)"/><circle cx="55.286797" cy="212.58208" r="13.861092" fill="rgb(255 255 255)"/><circle cx="179.38359" cy="167.83331" r="7.091452" fill="rgb(32 48 83)"/><circle cx="209.78839" cy="-2.4216948" r="11.3298855" fill="rgb(249 249 249)"/><circle cx="48.228844" cy="1.9677076" r="19.489819" fill="rgb(150 150 150)"/><circle cx="229.46748" cy="132.7984" r="20.173798" fill="rgb(255 255 255)"/><circle cx="234.93694" cy="175.48459" r="14.601406" fill="rgb(255 255 255)"/><circle cx="141.15083" cy="48.396816" r="13.225815" fill="rgb(248 250 251)"/><circle cx="240.56754" cy="25.016047" r="7.572736" fill="rgb(255 255 255)"/><circle cx="67.57575" cy="174.98685" r="8.548878" fill="rgb(26 36 65)"/><circle cx="158.29462" cy="100.50432" r="13.20151" fill="rgb(6 95 160)"/><circle cx="156.79495" cy="154.92082" r="13.29523" fill="rgb(255 254 254)"/><circle cx="134.04446" cy="94.96656" r="16.08873" fill="rgb(10 90 149)"/><circle cx="17.157223" cy="133.84056" r="15.578534" fill="rgb(255 255 255)"/><circle cx="45.234524" cy="53.754574" r="9.167509" fill="rgb(255 255 255)"/><circle cx="24.703556" cy="232.60052" r="15.844355" fill="rgb(255 255 255)"/><circle cx="8.734979" cy="74.01443" r="24.024538" fill="rgb(255 255 255)"/><circle cx="180.35759" cy="225.81734" r="17.911772" fill="rgb(255 255 255)"/><circle cx="220.7011" cy="112.31649" r="11.8645" fill="rgb(249 249 246)"/><circle cx="83.11857" cy="49.266502" r="7.2401657" fill="rgb(114 66 68)"/><circle cx="22.631653" cy="170.01309" r="14.756047" fill="rgb(255 255 255)"/><circle cx="87.509254" cy="100.69922" r="10.628601" fill="rgb(5 93 156)"/><circle cx="8.126192" cy="45.431633" r="23.422691" fill="rgb(255 255 255)"/><circle cx="38.061024" cy="-6.3277364" r="14.955214" fill="rgb(255 255 255)"/><circle cx="187.39674" cy="26.332127" r="17.474974" fill="rgb(255 255 255)"/><circle cx="213.0101" cy="177.1643" r="13.567904" fill="rgb(255 255 255)"/><circle cx="155.81728" cy="31.723715" r="5.860121" fill="rgb(127 25 27)"/><circle cx="176.89027" cy="82.39626" r="7.53154" fill="rgb(255 255 255)"/><circle cx="130.45543" cy="213.28522" r="14.223509" fill="rgb(153 176 214)"/><circle cx="123.60087" cy="166.73476" r="15.799001" fill="rgb(92 95 102)"/><circle cx="76.94162" cy="124.04375" r="11.418225" fill="rgb(187 187 187)"/><circle cx="121.94994" cy="106.80923" r="11.793639" fill="rgb(49 50 63)"/><circle cx="132.68465" cy="54.781933" r="11.540314" fill="rgb(101 46 46)"/><circle cx="68.89579" cy="-10.278901" r="17.514256" fill="rgb(255 255 255)"/><circle cx="104.54794" cy="165.46584" r="14.497107" fill="rgb(162 124 58)"/><circle cx="199.18" cy="140.90544" r="14.645493" fill="rgb(115 154 196)"/><circle cx="206.71375" cy="47.738907" r="15.521003" fill="rgb(158 154 156)"/><circle cx="180.50241" cy="191.42392" r="10.882141" fill="rgb(103 115 141)"/><circle cx="79.87455" cy="83.187706" r="6.0680456" fill="rgb(255 255 255)"/><circle cx="90.88182" cy="140.64545" r="17.718401" fill="rgb(230 230 230)"/><circle cx="134.17891" cy="80.34814" r="8.242012" fill="rgb(255 255 255)"/><circle cx="131.47331" cy="174.18248" r="8.56088" fill="rgb(255 190 37)"/><circle cx="22.301237" cy="92.42562" r="11.265873" fill="rgb(255 255 255)"/><circle cx="83.27605" cy="163.81166" r="5.9646378" fill="rgb(236 236 236)"/><circle cx="101.050224" cy="131.90117" r="14.424297" fill="rgb(208 208 208)"/><circle cx="57.241" cy="-6.732839" r="14.989981" fill="rgb(255 255 255)"/><circle cx="58.248615" cy="52.763622" r="6.5959167" fill="rgb(124 32 39)"/><circle cx="73.812416" cy="63.762383" r="15.202138" fill="rgb(136 44 48)"/><circle cx="15.5995245" cy="141.03882" r="17.004257" fill="rgb(255 255 255)"/><circle cx="72.32979" cy="12.01469" r="7.2817845" fill="rgb(150 150 150)"/><circle cx="137.30867" cy="172.09702" r="5.10746" fill="rgb(255 190 37)"/><circle cx="142.20364" cy="128.36972" r="20.114708" fill="rgb(233 234 232)"/><circle cx="236.45384" cy="83.507545" r="20.037844" fill="rgb(255 255 255)"/><circle cx="103.07486" cy="203.57387" r="14.622378" fill="rgb(191 206 227)"/><circle cx="136.08424" cy="13.176674" r="8.747267" fill="rgb(149 150 150)"/><circle cx="223.60571" cy="44.099922" r="11.570562" fill="rgb(255 255 255)"/><circle cx="144.97716" cy="204.57509" r="6.1331735" fill="rgb(191 206 227)"/><circle cx="68.240166" cy="102.9668" r="15.089687" fill="rgb(18 106 170)"/><circle cx="67.0214" cy="140.23868" r="5.565415" fill="rgb(144 109 43)"/><circle cx="166.11179" cy="98.876686" r="12.03474" fill="rgb(14 106 173)"/><circle cx="121.2389" cy="82.17996" r="5.7905354" fill="rgb(255 255 255)"/><circle cx="168.94856" cy="180.8349" r="10.440106" fill="rgb(15 18 40)"/><circle cx="217.18292" cy="246.33688" r="22.39433" fill="rgb(255 255 255)"/><circle cx="197.98459" cy="76.14234" r="5.6127677" fill="rgb(255 255 255)"/><circle cx="36.40665" cy="207.71074" r="22.687403" fill="rgb(255 255 255)"/><circle cx="245.5033" cy="178.98264" r="23.412807" fill="rgb(255 255 255)"/><circle cx="42.65994" cy="140.80676" r="12.474601" fill="rgb(101 132 153)"/><circle cx="177.6429" cy="155.97615" r="5.958969" fill="rgb(11 20 42)"/><circle cx="103.45074" cy="152.66032" r="7.8216987" fill="rgb(170 171 176)"/><circle cx="194.52504" cy="137.48627" r="15.32298" fill="rgb(68 131 182)"/><circle cx="108.46943" cy="25.555256" r="2.7293944" fill="rgb(102 49 50)"/><circle cx="159.89314" cy="198.08412" r="10.157841" fill="rgb(184 203 227)"/><circle cx="68.91756" cy="204.32057" r="5.937869" fill="rgb(94 107 134)"/><circle cx="84.82573" cy="10.305421" r="3.6006904" fill="rgb(61 61 61)"/><circle cx="169.26884" cy="117.62871" r="7.3418694" fill="rgb(198 198 202)"/><circle cx="177.01245" cy="124.86529" r="5.8664002" fill="rgb(255 194 53)"/><circle cx="49.26421" cy="64.767136" r="3.642476" fill="rgb(255 254 254)"/><circle cx="116.82748" cy="127.42287" r="10.069791" fill="rgb(63 63 74)"/><circle cx="130.85794" cy="109.56425" r="7.929636" fill="rgb(211 211 211)"/><circle cx="235.16109" cy="80.342415" r="24.364899" fill="rgb(255 255 255)"/><circle cx="177.32755" cy="147.0381" r="11.235233" fill="rgb(130 110 72)"/><circle cx="33.90844" cy="23.253191" r="4.9310336" fill="rgb(44 41 43)"/><circle cx="64.624176" cy="46.171356" r="12.170349" fill="rgb(158 43 46)"/><circle cx="44.73631" cy="94.48395" r="7.292716" fill="rgb(6 93 157)"/><circle cx="150.39745" cy="77.25771" r="11.720984" fill="rgb(255 255 255)"/><circle cx="228.49222" cy="100.14806" r="16.898052" fill="rgb(248 248 248)"/><circle cx="40.32286" cy="38.900032" r="5.7866077" fill="rgb(255 255 255)"/><circle cx="43.118923" cy="133.05792" r="11.633586" fill="rgb(89 144 191)"/><circle cx="98.07639" cy="120.60961" r="12.125581" fill="rgb(179 179 177)"/><circle cx="170.98106" cy="11.20871" r="7.570274" fill="rgb(149 149 149)"/><circle cx="122.569916" cy="231.56969" r="4.6319404" fill="rgb(69 75 96)"/><circle cx="175.24529" cy="27.820717" r="10.253657" fill="rgb(255 255 255)"/><circle cx="122.96311" cy="54.033043" r="9.130417" fill="rgb(173 50 53)"/><circle cx="166.60675" cy="-13.679848" r="23.390137" fill="rgb(255 255 255)"/><circle cx="112.82424" cy="12.996476" r="6.107364" fill="rgb(149 150 150)"/><circle cx="224.8012" cy="55.570477" r="14.201408" fill="rgb(255 255 255)"/><circle cx="71.765" cy="177.76248" r="9.669356" fill="rgb(19 22 38)"/><circle cx="106.66196" cy="36.032402" r="7.6467347" fill="rgb(159 46 49)"/><circle cx="39.84327" cy="68.090324" r="6.2339764" fill="rgb(255 254 254)"/><circle cx="204.69809" cy="157.84016" r="4.5424647" fill="rgb(32 33 50)"/><circle cx="70.67533" cy="163.94525" r="4.853926" fill="rgb(15 13 20)"/><circle cx="99.27882" cy="226.91641" r="2.0393465" fill="rgb(30 34 51)"/><circle cx="175.64444" cy="144.01076" r="6.071451" fill="rgb(242 175 48)"/><circle cx="145.05998" cy="50.762203" r="6.714032" fill="rgb(175 169 173)"/><circle cx="115.78944" cy="51.38506" r="13.090872" fill="rgb(183 50 56)"/><circle cx="133.03918" cy="26.149075" r="11.015531" fill="rgb(255 255 255)"/><circle cx="111.02392" cy="-14.943301" r="23.219828" fill="rgb(249 249 249)"/><circle cx="118.69359" cy="99.03127" r="9.259982" fill="rgb(13 31 54)"/><circle cx="52.12534" cy="182.82959" r="2.9891584" fill="rgb(43 49 55)"/><circle cx="67.73666" cy="125.80132" r="6.6673913" fill="rgb(225 167 52)"/><circle cx="210.0297" cy="28.5014" r="1.8239979" fill="rgb(56 55 55)"/><circle cx="37.172348" cy="14.294955" r="5.8519106" fill="rgb(63 62 62)"/><circle cx="198.36148" cy="47.544292" r="3.4948175" fill="rgb(252 254 253)"/><circle cx="83.48374" cy="-6.3403444" r="13.750067" fill="rgb(249 249 249)"/><circle cx="116.869774" cy="228.45425" r="2.7275896" fill="rgb(70 77 96)"/><circle cx="98.04039" cy="205.46834" r="11.061178" fill="rgb(149 171 212)"/><circle cx="180.79456" cy="8.086103" r="2.3367498" fill="rgb(61 61 61)"/><circle cx="123.992836" cy="10.179451" r="2.101535" fill="rgb(61 61 61)"/><circle cx="226.36656" cy="11.389247" r="14.7915325" fill="rgb(255 255 255)"/><circle cx="113.95248" cy="17.696608" r="2.8489027" fill="rgb(255 255 255)"/><circle cx="188.28455" cy="6.9689736" r="6.4232244" fill="rgb(150 150 150)"/><circle cx="127.32345" cy="12.000786" r="4.453314" fill="rgb(61 61 61)"/><circle cx="78.026146" cy="123.68371" r="4.878391" fill="rgb(230 230 229)"/><circle cx="196.67995" cy="37.390633" r="3.789014" fill="rgb(255 255 255)"/><circle cx="170.76474" cy="195.20174" r="5.6357183" fill="rgb(113 135 179)"/><circle cx="110.74871" cy="160.94618" r="5.675591" fill="rgb(83 58 33)"/><circle cx="196.11792" cy="37.347984" r="7.5853686" fill="rgb(255 255 255)"/><circle cx="175.32646" cy="119.13426" r="3.307948" fill="rgb(74 95 113)"/><circle cx="48.297554" cy="109.229935" r="12.468347" fill="rgb(59 127 177)"/><circle cx="160.1244" cy="128.73616" r="11.579739" fill="rgb(254 254 252)"/><circle cx="76.6997" cy="25.032433" r="10.952057" fill="rgb(255 255 255)"/><circle cx="198.35913" cy="-13.5067625" r="21.46946" fill="rgb(255 255 255)"/><circle cx="114.195724" cy="229.12984" r="3.9987392" fill="rgb(52 59 76)"/><circle cx="154.19144" cy="10.886994" r="2.4274502" fill="rgb(62 62 62)"/><circle cx="37.71826" cy="20.777086" r="4.876647" fill="rgb(255 255 255)"/><circle cx="151.50117" cy="62.440712" r="5.679179" fill="rgb(255 255 255)"/><circle cx="205.01756" cy="91.00768" r="2.7236912" fill="rgb(14 32 52)"/><circle cx="121.948074" cy="178.90096" r="9.019743" fill="rgb(145 105 40)"/><circle cx="170.00813" cy="111.394615" r="5.5664515" fill="rgb(9 26 61)"/><circle cx="48.085197" cy="160.45943" r="9.877108" fill="rgb(111 133 165)"/><circle cx="110.96205" cy="170.6477" r="6.3964643" fill="rgb(255 189 41)"/><circle cx="134.98608" cy="48.366234" r="2.8134081" fill="rgb(114 37 39)"/><circle cx="66.94843" cy="81.60394" r="6.0346346" fill="rgb(255 255 255)"/><circle cx="162.73634" cy="82.77698" r="5.275709" fill="rgb(255 255 255)"/><circle cx="111.24603" cy="97.80106" r="4.7745266" fill="rgb(13 32 55)"/><circle cx="99.27572" cy="99.46891" r="5.7562003" fill="rgb(42 44 54)"/><circle cx="86.549095" cy="156.31136" r="11.920591" fill="rgb(221 220 222)"/><circle cx="188.26726" cy="-17.704176" r="24.805267" fill="rgb(255 255 255)"/><circle cx="58.574265" cy="74.512115" r="3.553719" fill="rgb(154 153 148)"/><circle cx="34.405464" cy="104.28065" r="2.496526" fill="rgb(36 40 44)"/><circle cx="177.70532" cy="71.77303" r="1.4667454" fill="rgb(216 217 216)"/><circle cx="204.82045" cy="141.84492" r="3.7695444" fill="rgb(75 76 80)"/><circle cx="79.671364" cy="81.421486" r="7.218788" fill="rgb(221 218 220)"/><circle cx="165.2639" cy="9.810159" r="1.6396972" fill="rgb(61 61 61)"/><circle cx="92.894714" cy="126.64881" r="15.766853" fill="rgb(208 208 208)"/><circle cx="100.719185" cy="164.59369" r="5.4829454" fill="rgb(87 66 42)"/><circle cx="45.971493" cy="24.475348" r="3.0201142" fill="rgb(255 255 255)"/><circle cx="72.074905" cy="30.827303" r="7.521893" fill="rgb(255 255 255)"/><circle cx="140.65277" cy="-8.615037" r="15.872644" fill="rgb(249 249 249)"/><circle cx="207.193" cy="110.729744" r="3.5407968" fill="rgb(18 65 106)"/><circle cx="206.82813" cy="205.3582" r="21.669306" fill="rgb(255 255 255)"/><circle cx="133.57979" cy="127.19129" r="10.986658" fill="rgb(200 201 202)"/><circle cx="147.17476" cy="201.22261" r="13.894656" fill="rgb(138 166 206)"/><circle cx="208.58974" cy="86.071365" r="4.0942197" fill="rgb(107 105 104)"/><circle cx="180.80022" cy="79.05225" r="8.409006" fill="rgb(219 225 222)"/><circle cx="207.88338" cy="29.004345" r="4.773063" fill="rgb(56 55 55)"/><circle cx="145.64467" cy="45.98761" r="2.1702561" fill="rgb(255 255 255)"/><circle cx="177.95102" cy="128.39305" r="6.4134398" fill="rgb(174 132 42)"/><circle cx="201.19295" cy="53.39952" r="5.290238" fill="rgb(204 208 208)"/><circle cx="183.98698" cy="125.16399" r="3.691835" fill="rgb(47 62 91)"/><circle cx="35.16822" cy="132.60852" r="1.676983" fill="rgb(37 42 48)"/><circle cx="198.14922" cy="170.71954" r="4.675362" fill="rgb(28 25 31)"/><circle cx="139.07121" cy="227.74666" r="2.3506246" fill="rgb(54 53 60)"/><circle cx="41.889053" cy="172.56267" r="4.033632" fill="rgb(62 74 93)"/><circle cx="199.71564" cy="66.29878" r="5.7788177" fill="rgb(255 255 255)"/><circle cx="128.106" cy="71.9492" r="2.909643" fill="rgb(214 210 212)"/><circle cx="83.46517" cy="217.33025" r="4.2314806" fill="rgb(24 25 32)"/><circle cx="157.83163" cy="28.043983" r="5.627839" fill="rgb(137 78 79)"/><circle cx="168.86899" cy="117.45593" r="4.428897" fill="rgb(198 198 202)"/><circle cx="230.11963" cy="168.99991" r="24.843653" fill="rgb(255 255 255)"/><circle cx="128.66444" cy="230.6155" r="3.254399" fill="rgb(29 33 49)"/><circle cx="36.100246" cy="179.18347" r="6.823025" fill="rgb(244 246 246)"/><circle cx="120.73133" cy="247.22707" r="13.10218" fill="rgb(255 255 255)"/><circle cx="79.36662" cy="228.06602" r="7.7849402" fill="rgb(255 255 255)"/><circle cx="155.1934" cy="34.516087" r="5.4113665" fill="rgb(162 49 51)"/><circle cx="77.8153" cy="75.49414" r="5.952204" fill="rgb(192 194 192)"/><circle cx="23.456375" cy="154.82298" r="8.435418" fill="rgb(255 255 255)"/><circle cx="119.94872" cy="98.53499" r="6.443373" fill="rgb(10 95 161)"/><circle cx="203.97394" cy="12.229985" r="4.707954" fill="rgb(62 61 61)"/><circle cx="235.63895" cy="28.682343" r="23.926796" fill="rgb(255 255 255)"/><circle cx="107.0473" cy="27.270693" r="3.7106757" fill="rgb(102 49 50)"/><circle cx="139.13753" cy="45.740074" r="3.196711" fill="rgb(121 68 70)"/><circle cx="98.18878" cy="95.87456" r="6.3959937" fill="rgb(10 94 155)"/><circle cx="173.292" cy="103.50084" r="5.114881" fill="rgb(117 169 204)"/><circle cx="136.76752" cy="73.68714" r="3.7309592" fill="rgb(167 50 52)"/><circle cx="33.747772" cy="29.569254" r="1.3775709" fill="rgb(45 41 42)"/><circle cx="52.850647" cy="18.17364" r="4.2144213" fill="rgb(255 255 255)"/><circle cx="191.7257" cy="60.78062" r="6.02851" fill="rgb(117 95 99)"/><circle cx="102.06796" cy="29.26304" r="4.8980813" fill="rgb(178 50 49)"/><circle cx="31.22533" cy="227.99884" r="14.444577" fill="rgb(255 255 255)"/><circle cx="175.97464" cy="132.0574" r="5.814863" fill="rgb(231 168 40)"/></svg>