<svg viewBox="0 0 245 250" xmlns="http://www.w3.org/2000/svg" width="245" height="250"><circle cx="220.88219" cy="214.42427" r="24.940485" fill="rgb(255 255 255)"/><circle cx="223.42418" cy="168.4327" r="19.292515" fill="rgb(255 255 255)"/><circle cx="220.92705" cy="65.07692" r="23.51359" fill="rgb(255 255 255)"/><circle cx="79.042656" cy="71.10719" r="14.779646" fill="rgb(193 191 192)"/><circle cx="46.346046" cy="222.75879" r="22.79421" fill="rgb(255 255 255)"/><circle cx="179.65398" cy="228.54805" r="21.844084" fill="rgb(255 255 255)"/><circle cx="0" cy="178.83635" r="25" fill="rgb(255 255 255)"/><circle cx="0" cy="20.593441" r="21.875378" fill="rgb(255 255 255)"/><circle cx="13.564993" cy="119.83216" r="22.885248" fill="rgb(255 255 255)"/><circle cx="218.64597" cy="134.27672" r="22.138025" fill="rgb(255 255 255)"/><circle cx="138.75229" cy="138.09987" r="19.569328" fill="rgb(255 255 254)"/><circle cx="146.94281" cy="250" r="25" fill="rgb(255 255 255)"/><circle cx="223.28665" cy="32.117428" r="24.69797" fill="rgb(158 154 156)"/><circle cx="92.4923" cy="144.28693" r="18.876135" fill="rgb(222 222 222)"/><circle cx="160.02718" cy="14.392158" r="20.493967" fill="rgb(149 150 149)"/><circle cx="86.72662" cy="238.63673" r="22.964417" fill="rgb(255 255 255)"/><circle cx="7.5303335" cy="234.1394" r="22.49296" fill="rgb(255 255 255)"/><circle cx="129.0841" cy="57.345078" r="25" fill="rgb(100 26 26)"/><circle cx="217.31755" cy="247.5005" r="24.60941" fill="rgb(255 255 255)"/><circle cx="78.971436" cy="0" r="25" fill="rgb(255 255 255)"/><circle cx="189.45828" cy="73.18318" r="23.060143" fill="rgb(101 62 61)"/><circle cx="142.12398" cy="211.88643" r="24.14009" fill="rgb(147 171 210)"/><circle cx="27.61994" cy="147.41188" r="25" fill="rgb(255 255 255)"/><circle cx="238.69226" cy="96.514" r="23.559313" fill="rgb(255 255 255)"/><circle cx="14.424201" cy="79.70826" r="21.684784" fill="rgb(255 255 255)"/><circle cx="114.61404" cy="86.343185" r="24.35911" fill="rgb(199 192 191)"/><circle cx="231.58258" cy="13.612898" r="20.631905" fill="rgb(255 255 255)"/><circle cx="61.98758" cy="189.90994" r="18.293797" fill="rgb(122 149 194)"/><circle cx="157.92989" cy="154.46152" r="18.041094" fill="rgb(219 225 227)"/><circle cx="144.01721" cy="124.740166" r="23.907022" fill="rgb(207 209 212)"/><circle cx="193.3167" cy="185.41144" r="15.697485" fill="rgb(207 206 206)"/><circle cx="72.82281" cy="83.50763" r="24.038736" fill="rgb(128 128 135)"/><circle cx="48.167625" cy="140.4831" r="22.839916" fill="rgb(17 105 169)"/><circle cx="155.71611" cy="71.13351" r="22.72445" fill="rgb(254 254 253)"/><circle cx="93.34515" cy="211.22978" r="25" fill="rgb(156 177 214)"/><circle cx="65.56793" cy="7.480735" r="24.522362" fill="rgb(254 254 255)"/><circle cx="16.969482" cy="32.837414" r="22.887884" fill="rgb(255 255 255)"/><circle cx="209.95193" cy="36.430916" r="23.73711" fill="rgb(155 155 155)"/><circle cx="142.48808" cy="233.21664" r="5.372653" fill="rgb(255 255 255)"/><circle cx="179.34782" cy="40.334557" r="25" fill="rgb(232 235 235)"/><circle cx="27.627064" cy="194.13036" r="24.132671" fill="rgb(255 255 255)"/><circle cx="93.44988" cy="128.90546" r="20.454386" fill="rgb(168 169 171)"/><circle cx="192.5061" cy="71.39541" r="17.773855" fill="rgb(195 190 188)"/><circle cx="224.09502" cy="193.92383" r="22.017405" fill="rgb(255 255 255)"/><circle cx="155.83835" cy="51.357037" r="24.683767" fill="rgb(221 65 67)"/><circle cx="96.2142" cy="12.522895" r="23.657013" fill="rgb(254 255 255)"/><circle cx="165.99188" cy="107.01704" r="15.994387" fill="rgb(4 93 158)"/><circle cx="45.833553" cy="114.93297" r="18.693533" fill="rgb(29 117 175)"/><circle cx="97.321335" cy="51.68765" r="18.279293" fill="rgb(125 109 111)"/><circle cx="122.373344" cy="175.50417" r="20.321815" fill="rgb(120 90 46)"/><circle cx="242.1875" cy="157.46986" r="24.273619" fill="rgb(255 255 255)"/><circle cx="190.95271" cy="138.66168" r="23.911518" fill="rgb(43 112 178)"/><circle cx="33.62033" cy="250" r="23.338974" fill="rgb(255 255 255)"/><circle cx="65.093544" cy="232.80814" r="20.42311" fill="rgb(255 255 255)"/><circle cx="234.73787" cy="42.942413" r="23.615099" fill="rgb(255 255 255)"/><circle cx="15.532521" cy="147.27666" r="18.091137" fill="rgb(255 255 255)"/><circle cx="27.666466" cy="-12.131194" r="24.760471" fill="rgb(255 255 255)"/><circle cx="40.63127" cy="51.703865" r="12.382494" fill="rgb(255 255 255)"/><circle cx="224.7412" cy="100.19989" r="16.371367" fill="rgb(255 255 255)"/><circle cx="202.7124" cy="6.540008" r="22.977053" fill="rgb(255 255 255)"/><circle cx="112.22038" cy="141.53876" r="18.46903" fill="rgb(154 155 160)"/><circle cx="185.84386" cy="104.43624" r="23.333363" fill="rgb(26 118 176)"/><circle cx="195.64478" cy="204.74034" r="17.874569" fill="rgb(254 254 254)"/><circle cx="40.737225" cy="39.849903" r="12.995731" fill="rgb(197 197 198)"/><circle cx="156.70891" cy="137.70836" r="24.140944" fill="rgb(255 254 255)"/><circle cx="72.8336" cy="119.9716" r="6.9023743" fill="rgb(197 197 197)"/><circle cx="130.44508" cy="58.649937" r="20.357788" fill="rgb(170 52 55)"/><circle cx="55.364315" cy="23.950424" r="21.954704" fill="rgb(154 153 154)"/><circle cx="170.9873" cy="199.6387" r="9.200825" fill="rgb(113 135 176)"/><circle cx="91.78205" cy="132.77274" r="20.993298" fill="rgb(222 222 222)"/><circle cx="160.67111" cy="1.1255071" r="19.178665" fill="rgb(255 255 255)"/><circle cx="5.364627" cy="202.34799" r="24.75777" fill="rgb(255 255 255)"/><circle cx="81.17849" cy="161.40205" r="8.915154" fill="rgb(219 218 221)"/><circle cx="240.3078" cy="250" r="21.876019" fill="rgb(255 255 255)"/><circle cx="255.67645" cy="112.93812" r="24.43691" fill="rgb(255 255 255)"/><circle cx="94.07039" cy="48.8388" r="4.2165704" fill="rgb(209 214 212)"/><circle cx="117.22397" cy="107.8176" r="20.831293" fill="rgb(163 165 170)"/><circle cx="50.449505" cy="152.78989" r="19.361193" fill="rgb(94 120 156)"/><circle cx="130.80832" cy="20.283638" r="24.897547" fill="rgb(189 188 185)"/><circle cx="99.33902" cy="74.19342" r="9.223543" fill="rgb(254 254 254)"/><circle cx="174.2246" cy="134.75072" r="12.178271" fill="rgb(130 110 72)"/><circle cx="74.56752" cy="177.88774" r="10.26458" fill="rgb(0 0 14)"/><circle cx="36.90106" cy="67.74647" r="20.950182" fill="rgb(224 224 224)"/><circle cx="33.52735" cy="114.59148" r="11.422112" fill="rgb(40 38 42)"/><circle cx="179.24971" cy="62.41403" r="14.483487" fill="rgb(159 45 43)"/><circle cx="124.71848" cy="213.37433" r="19.283882" fill="rgb(153 175 214)"/><circle cx="92.621284" cy="23.487377" r="19.084812" fill="rgb(150 150 150)"/><circle cx="81.45598" cy="30.707071" r="13.982212" fill="rgb(255 255 255)"/><circle cx="149.12689" cy="63.204414" r="7.0206823" fill="rgb(255 255 255)"/><circle cx="63.129692" cy="134.8455" r="10.62936" fill="rgb(95 72 46)"/><circle cx="176.16505" cy="196.53828" r="10.484307" fill="rgb(119 147 189)"/><circle cx="102.57376" cy="61.714558" r="3.4123247" fill="rgb(228 229 228)"/><circle cx="191.90869" cy="163.12625" r="10.529833" fill="rgb(157 182 212)"/><circle cx="103.13859" cy="110.26499" r="22.573645" fill="rgb(112 113 116)"/><circle cx="210.83247" cy="18.180191" r="9.278472" fill="rgb(157 155 156)"/><circle cx="117.9236" cy="251.67746" r="17.83022" fill="rgb(255 255 255)"/><circle cx="138.60593" cy="28.531586" r="15.344128" fill="rgb(253 255 254)"/><circle cx="160.45204" cy="193.9142" r="8.284122" fill="rgb(112 137 181)"/><circle cx="108.81278" cy="106.45397" r="7.291249" fill="rgb(128 129 136)"/><circle cx="150.16696" cy="131.81613" r="16.646725" fill="rgb(255 253 254)"/><circle cx="123.76012" cy="100.78405" r="13.891118" fill="rgb(6 95 159)"/><circle cx="13.775257" cy="106.35941" r="16.226316" fill="rgb(255 255 255)"/><circle cx="66.58568" cy="19.41182" r="3.624872" fill="rgb(255 255 255)"/><circle cx="78.17498" cy="58.86244" r="12.30596" fill="rgb(167 50 51)"/><circle cx="182.22745" cy="82.591965" r="11.08868" fill="rgb(220 222 220)"/><circle cx="159.38632" cy="97.23587" r="10.394233" fill="rgb(5 92 159)"/><circle cx="154.86089" cy="29.49599" r="7.433338" fill="rgb(127 121 116)"/><circle cx="108.68152" cy="33.056324" r="10.0204" fill="rgb(205 58 66)"/><circle cx="64.57018" cy="155.10942" r="9.008516" fill="rgb(5 4 21)"/><circle cx="147.57993" cy="171.58856" r="10.018607" fill="rgb(117 84 43)"/><circle cx="188.05354" cy="181.35216" r="8.577774" fill="rgb(119 136 171)"/><circle cx="139.19528" cy="99.16266" r="6.716351" fill="rgb(0 23 57)"/><circle cx="33.78314" cy="25.552137" r="7.885797" fill="rgb(197 197 197)"/><circle cx="20.102587" cy="0" r="17.060556" fill="rgb(255 255 255)"/><circle cx="59.43921" cy="44.14033" r="12.715783" fill="rgb(180 50 52)"/><circle cx="170.33849" cy="51.192863" r="15.552898" fill="rgb(159 45 43)"/><circle cx="163.23906" cy="11.024106" r="7.090543" fill="rgb(61 61 61)"/><circle cx="174.6983" cy="156.47467" r="7.6548586" fill="rgb(11 20 42)"/><circle cx="223.8106" cy="140.35323" r="13.40112" fill="rgb(255 255 255)"/><circle cx="89.306" cy="83.80779" r="5.0404377" fill="rgb(255 254 255)"/><circle cx="230.50111" cy="15.155591" r="17.786612" fill="rgb(255 255 255)"/><circle cx="185.6725" cy="8.8071785" r="3.8174963" fill="rgb(61 61 61)"/><circle cx="173.89146" cy="35.318027" r="4.964433" fill="rgb(254 254 253)"/><circle cx="117.4039" cy="133.60062" r="4.9645076" fill="rgb(14 14 28)"/><circle cx="155.38727" cy="76.26138" r="4.6355166" fill="rgb(253 254 254)"/><circle cx="99.428055" cy="19.472586" r="3.503636" fill="rgb(255 255 255)"/><circle cx="116.93217" cy="105.68383" r="8.089678" fill="rgb(1 33 71)"/><circle cx="46.836414" cy="210.88246" r="16.248354" fill="rgb(255 255 255)"/><circle cx="131.08539" cy="171.56752" r="5.754594" fill="rgb(255 191 54)"/><circle cx="144.47354" cy="54.72282" r="9.44301" fill="rgb(137 139 139)"/><circle cx="123.73847" cy="150.66916" r="9.71099" fill="rgb(138 140 147)"/><circle cx="33.566555" cy="83.22246" r="4.265661" fill="rgb(45 40 39)"/><circle cx="160.53152" cy="6.427114" r="3.2912378" fill="rgb(249 249 249)"/><circle cx="58.824657" cy="84.51884" r="3.0521815" fill="rgb(255 255 255)"/><circle cx="58.500835" cy="131.15181" r="2.24323" fill="rgb(15 40 79)"/><circle cx="204.1423" cy="12.845762" r="4.086522" fill="rgb(162 160 161)"/><circle cx="9.616856" cy="94.93822" r="21.199127" fill="rgb(255 255 255)"/><circle cx="56.152348" cy="107.89995" r="19.1566" fill="rgb(29 116 177)"/><circle cx="145.41548" cy="44.062717" r="5.257661" fill="rgb(217 217 217)"/><circle cx="191.50684" cy="242.45248" r="19.343714" fill="rgb(255 255 255)"/><circle cx="53.11697" cy="172.80292" r="7.62259" fill="rgb(134 164 206)"/><circle cx="10.393502" cy="121.43618" r="20.911602" fill="rgb(255 255 255)"/><circle cx="104.82377" cy="209.72583" r="20.500898" fill="rgb(138 168 209)"/><circle cx="178.90623" cy="101.120636" r="11.891844" fill="rgb(17 102 172)"/><circle cx="98.93613" cy="55.57394" r="5.699585" fill="rgb(209 214 212)"/><circle cx="151.37106" cy="10.475656" r="5.494941" fill="rgb(149 150 149)"/><circle cx="33.81841" cy="42.273567" r="16.41305" fill="rgb(197 197 197)"/><circle cx="124.34912" cy="-12.724953" r="20.811" fill="rgb(255 255 255)"/><circle cx="149.53271" cy="95.963234" r="5.9759064" fill="rgb(11 56 108)"/><circle cx="165.97972" cy="18.131617" r="5.436454" fill="rgb(252 255 255)"/><circle cx="146.60231" cy="70.874054" r="6.7026477" fill="rgb(255 255 255)"/><circle cx="198.04568" cy="170.93015" r="5.9054027" fill="rgb(94 89 89)"/><circle cx="71.64986" cy="238.45198" r="21.92939" fill="rgb(255 255 255)"/><circle cx="35.112175" cy="72.88847" r="4.191025" fill="rgb(43 41 42)"/><circle cx="186.6757" cy="48.984394" r="6.2981405" fill="rgb(61 44 45)"/><circle cx="59.0193" cy="-14.169042" r="22.317453" fill="rgb(249 249 249)"/><circle cx="148.80183" cy="99.39027" r="7.824908" fill="rgb(14 106 170)"/><circle cx="69.37307" cy="65.25674" r="9.807015" fill="rgb(122 37 39)"/><circle cx="84.01363" cy="217.41135" r="3.481055" fill="rgb(118 125 136)"/><circle cx="142.14464" cy="136.0562" r="11.439564" fill="rgb(248 248 248)"/><circle cx="72.72283" cy="78.49686" r="12.152209" fill="rgb(221 218 220)"/><circle cx="160.22617" cy="214.78151" r="3.1974678" fill="rgb(87 86 89)"/><circle cx="121.416" cy="58.08038" r="16.485226" fill="rgb(161 51 54)"/><circle cx="157.08391" cy="241.33711" r="16.930958" fill="rgb(255 255 255)"/><circle cx="83.95603" cy="28.514204" r="13.480278" fill="rgb(255 254 254)"/><circle cx="106.89517" cy="172.39212" r="8.504898" fill="rgb(248 186 54)"/><circle cx="188.09612" cy="74.64703" r="3.3933077" fill="rgb(101 62 61)"/><circle cx="134.40828" cy="80.18329" r="6.644596" fill="rgb(255 255 255)"/><circle cx="66.50435" cy="66.18756" r="6.244684" fill="rgb(179 53 55)"/><circle cx="80.25386" cy="97.26903" r="12.24027" fill="rgb(5 93 156)"/><circle cx="33.136227" cy="33.15502" r="2.7363932" fill="rgb(43 41 42)"/><circle cx="113.25152" cy="244.53615" r="11.985888" fill="rgb(255 255 255)"/><circle cx="224.35017" cy="181.46373" r="24.439121" fill="rgb(255 255 255)"/><circle cx="126.02953" cy="24.708271" r="12.159079" fill="rgb(254 254 254)"/><circle cx="52.04359" cy="186.66725" r="3.7734008" fill="rgb(20 23 31)"/><circle cx="71.4218" cy="56.877853" r="11.32875" fill="rgb(169 45 47)"/><circle cx="33.432972" cy="42.180023" r="3.526408" fill="rgb(43 41 42)"/><circle cx="182.8976" cy="34.737564" r="8.168323" fill="rgb(255 255 255)"/><circle cx="4.415898" cy="44.501938" r="25" fill="rgb(255 255 255)"/><circle cx="230.79686" cy="81.884224" r="20.879576" fill="rgb(255 255 255)"/><circle cx="57.401573" cy="16.9279" r="4.2304697" fill="rgb(255 255 255)"/><circle cx="184.21895" cy="190.1329" r="6.160463" fill="rgb(32 44 69)"/><circle cx="149.67679" cy="54.167717" r="5.017407" fill="rgb(255 255 255)"/><circle cx="66.04443" cy="127.04301" r="6.367701" fill="rgb(255 193 49)"/><circle cx="93.98577" cy="42.07017" r="5.35926" fill="rgb(255 255 255)"/><circle cx="153.8004" cy="137.38293" r="12.854685" fill="rgb(254 255 252)"/><circle cx="199.07257" cy="122.06616" r="9.64161" fill="rgb(68 131 182)"/><circle cx="221.30113" cy="154.77061" r="11.297583" fill="rgb(255 255 255)"/><circle cx="139.86272" cy="60.283665" r="7.0232105" fill="rgb(129 43 45)"/><circle cx="198.57964" cy="80.482254" r="5.1683855" fill="rgb(255 255 255)"/><circle cx="57.861805" cy="225.58261" r="19.387259" fill="rgb(255 255 255)"/><circle cx="35.33593" cy="70.028175" r="3.0404127" fill="rgb(43 41 42)"/><circle cx="208.23146" cy="117.26698" r="2.5593553" fill="rgb(54 54 59)"/><circle cx="171.64311" cy="161.67014" r="5.608959" fill="rgb(0 0 12)"/><circle cx="167.90572" cy="0.03616605" r="7.8390937" fill="rgb(249 249 249)"/><circle cx="33.590202" cy="60.341225" r="3.9487038" fill="rgb(43 41 41)"/><circle cx="130.30455" cy="71.92964" r="2.3797755" fill="rgb(226 226 227)"/><circle cx="199.12798" cy="11.643271" r="10.670982" fill="rgb(150 150 150)"/><circle cx="93.970856" cy="125.80767" r="16.420105" fill="rgb(203 202 205)"/><circle cx="140.71191" cy="-6.8967752" r="13.943454" fill="rgb(255 255 255)"/><circle cx="78.502884" cy="214.3633" r="2.9768085" fill="rgb(33 36 41)"/><circle cx="68.27669" cy="111.447685" r="6.7414174" fill="rgb(26 50 85)"/><circle cx="121.23297" cy="146.2801" r="10.305136" fill="rgb(99 102 107)"/><circle cx="95.90474" cy="170.68987" r="8.402036" fill="rgb(119 90 46)"/><circle cx="182.50423" cy="-4.707351" r="12.677353" fill="rgb(255 255 255)"/><circle cx="194.32693" cy="28.179945" r="10.78968" fill="rgb(255 255 255)"/><circle cx="56.46738" cy="191.44702" r="3.2050526" fill="rgb(48 58 83)"/><circle cx="226.27444" cy="109.99807" r="13.53441" fill="rgb(255 255 255)"/><circle cx="136.90665" cy="141.19077" r="8.840884" fill="rgb(219 220 220)"/><circle cx="131.22676" cy="116.15855" r="10.048227" fill="rgb(193 193 194)"/><circle cx="158.23883" cy="197.6812" r="6.2971187" fill="rgb(138 165 207)"/><circle cx="193.48781" cy="-10.923137" r="16.06379" fill="rgb(249 249 249)"/><circle cx="70.50338" cy="173.89459" r="9.990787" fill="rgb(24 19 20)"/><circle cx="205.5442" cy="-8.5235195" r="16.4478" fill="rgb(249 249 249)"/><circle cx="142.58035" cy="144.09991" r="14.254027" fill="rgb(241 242 242)"/><circle cx="141.33896" cy="225.46974" r="2.7488534" fill="rgb(24 31 45)"/><circle cx="174.63852" cy="154.38895" r="4.7684975" fill="rgb(219 166 44)"/><circle cx="176.3844" cy="143.5175" r="3.6878204" fill="rgb(201 153 42)"/><circle cx="51.454933" cy="19.92856" r="4.577444" fill="rgb(255 255 255)"/><circle cx="147.50934" cy="225.07748" r="2.845112" fill="rgb(93 107 133)"/><circle cx="71.05254" cy="24.856335" r="10.172578" fill="rgb(253 254 253)"/><circle cx="56.791485" cy="34.421055" r="10.147767" fill="rgb(186 49 50)"/><circle cx="65.02246" cy="63.14972" r="10.637333" fill="rgb(110 42 44)"/><circle cx="141.32498" cy="176.774" r="5.9924254" fill="rgb(171 131 58)"/><circle cx="44.716522" cy="45.847942" r="4.883898" fill="rgb(255 255 255)"/><circle cx="49.24884" cy="178.21725" r="3.8460917" fill="rgb(64 64 65)"/><circle cx="100.96811" cy="97.56833" r="7.3952417" fill="rgb(13 31 55)"/><circle cx="123.83048" cy="209.60695" r="18.184889" fill="rgb(138 165 206)"/><circle cx="74.27001" cy="208.89677" r="3.181777" fill="rgb(33 36 41)"/><circle cx="119.08385" cy="11.184491" r="4.3548207" fill="rgb(61 61 61)"/><circle cx="173.48311" cy="128.741" r="6.8552923" fill="rgb(174 132 42)"/><circle cx="174.49146" cy="13.163038" r="6.8027534" fill="rgb(149 149 149)"/><circle cx="195.98505" cy="140.0584" r="9.641339" fill="rgb(118 156 201)"/><circle cx="155.09029" cy="153.59729" r="12.745598" fill="rgb(255 255 255)"/><circle cx="12.355505" cy="76.7135" r="13.548862" fill="rgb(255 255 255)"/><circle cx="44.966324" cy="77.99552" r="10.718872" fill="rgb(254 255 255)"/><circle cx="93.22129" cy="0.58788157" r="7.1478467" fill="rgb(249 249 249)"/><circle cx="127.32071" cy="217.1348" r="6.6737485" fill="rgb(157 179 215)"/><circle cx="63.64154" cy="92.82604" r="2.7209673" fill="rgb(13 31 53)"/><circle cx="176.25792" cy="135.36287" r="3.2548492" fill="rgb(255 192 52)"/><circle cx="139.32368" cy="137.425" r="9.956352" fill="rgb(207 208 208)"/><circle cx="50.26448" cy="156.0826" r="7.9103336" fill="rgb(127 159 200)"/><circle cx="79.794334" cy="169.56006" r="1.6962471" fill="rgb(255 255 255)"/><circle cx="95.24837" cy="79.68874" r="6.209178" fill="rgb(252 255 254)"/><circle cx="159.53482" cy="128.2529" r="10.739367" fill="rgb(248 248 248)"/><circle cx="132.79099" cy="225.47797" r="6.3608236" fill="rgb(104 102 103)"/><circle cx="96.125496" cy="224.55884" r="6.942536" fill="rgb(118 125 136)"/><circle cx="170.6484" cy="206.64044" r="5.85543" fill="rgb(77 92 124)"/><circle cx="156.00716" cy="216.29556" r="5.1704354" fill="rgb(87 86 89)"/><circle cx="80.360954" cy="93.36134" r="3.1297688" fill="rgb(13 32 53)"/><circle cx="120.43478" cy="84.566536" r="4.6141453" fill="rgb(255 255 255)"/><circle cx="33.038887" cy="12.634139" r="4.176108" fill="rgb(63 62 62)"/><circle cx="44.795963" cy="20.499111" r="6.7731633" fill="rgb(255 255 255)"/></svg>